<?xml version="1.0" encoding="UTF-8"?>
<svg id="Layer_1" data-email="Layer 1" xmlns="http://www.w3.org/2000/svg" viewBox="0 0 549.15 272.87">
  <defs>
    <style>
      .cls-1 {
        fill: #b3b3b3;
      }

      .cls-1, .cls-2, .cls-3 {
        stroke-width: 0px;
      }

      .cls-2 {
        fill: #000;
      }

      .cls-3 {
        fill: #1d74ff;
      }
    </style>
  </defs>
  <path class="cls-3" d="M275.64,149.73c13.35-5.3,76.91-73.01,42.12-113.33-9.83-13.56-25.55-21.85-42.12-21.83-16.57-.02-32.28,8.27-42.12,21.83-34.8,40.32,28.76,108.03,42.12,113.33Z"/>
  <g>
    <path class="cls-2" d="M25.31,246.25v-65.45h13.84v54.04h28.06v11.41H25.31Z"/>
    <path class="cls-2" d="M132.04,213.52c0,7.14-1.35,13.21-4.04,18.22s-6.36,8.83-10.99,11.46c-4.63,2.63-9.84,3.95-15.61,3.95s-11.04-1.32-15.66-3.96c-4.62-2.64-8.28-6.47-10.96-11.47-2.68-5.01-4.03-11.07-4.03-18.19s1.34-13.21,4.03-18.22,6.34-8.83,10.96-11.46c4.62-2.63,9.84-3.95,15.66-3.95s10.98,1.32,15.61,3.95c4.63,2.63,8.3,6.45,10.99,11.46s4.04,11.08,4.04,18.22ZM118,213.52c0-4.62-.69-8.52-2.06-11.7s-3.31-5.58-5.8-7.22-5.41-2.46-8.76-2.46-6.26.82-8.76,2.46c-2.49,1.64-4.43,4.05-5.8,7.22-1.37,3.17-2.06,7.07-2.06,11.7s.69,8.52,2.06,11.7c1.37,3.18,3.31,5.58,5.8,7.22,2.49,1.64,5.41,2.46,8.76,2.46s6.26-.82,8.76-2.46,4.43-4.05,5.8-7.22c1.37-3.17,2.06-7.07,2.06-11.7Z"/>
    <path class="cls-2" d="M137.76,246.25v-65.45h13.84v28.86h.86l23.55-28.86h16.59l-24.29,29.31,24.58,36.15h-16.55l-17.93-26.91-6.81,8.31v18.6h-13.84Z"/>
    <path class="cls-2" d="M206.61,246.25h-14.83l22.6-65.45h17.83l22.56,65.45h-14.83l-16.4-50.5h-.51l-16.43,50.5ZM205.68,220.52h35.03v10.8h-35.03v-10.8Z"/>
    <path class="cls-2" d="M258.13,246.25v-65.45h13.84v54.04h28.06v11.41h-41.9Z"/>
    <path class="cls-1" d="M311.29,190.83c-2.02,0-3.75-.67-5.19-2.01-1.44-1.34-2.16-2.96-2.16-4.86s.72-3.52,2.17-4.87c1.45-1.35,3.17-2.03,5.18-2.03s3.76.67,5.19,2.01c1.44,1.34,2.16,2.96,2.16,4.86s-.72,3.52-2.16,4.87c-1.44,1.35-3.17,2.03-5.19,2.03ZM304.45,246.25v-49.09h13.61v49.09h-13.61Z"/>
    <path class="cls-1" d="M324.18,246.25v-8.12l24.03-29.75v-.35h-23.2v-10.87h39.6v8.85l-22.56,29.02v.35h23.4v10.87h-41.26Z"/>
    <path class="cls-1" d="M385.39,247.18c-3.13,0-5.92-.55-8.37-1.65-2.45-1.1-4.38-2.73-5.8-4.89-1.42-2.16-2.13-4.86-2.13-8.1,0-2.73.5-5.02,1.5-6.87,1-1.85,2.37-3.34,4.09-4.47,1.73-1.13,3.69-1.98,5.9-2.56s4.52-.98,6.95-1.21c2.85-.3,5.16-.58,6.9-.85s3.01-.67,3.8-1.2c.79-.53,1.18-1.32,1.18-2.36v-.19c0-2.02-.63-3.59-1.9-4.7-1.27-1.11-3.06-1.66-5.38-1.66-2.45,0-4.4.54-5.85,1.61-1.45,1.08-2.41,2.42-2.88,4.04l-12.59-1.02c.64-2.98,1.9-5.57,3.77-7.75,1.88-2.18,4.3-3.87,7.27-5.05,2.97-1.18,6.42-1.77,10.34-1.77,2.73,0,5.34.32,7.85.96,2.5.64,4.73,1.63,6.68,2.97,1.95,1.34,3.49,3.06,4.62,5.16,1.13,2.1,1.69,4.61,1.69,7.53v33.11h-12.91v-6.81h-.38c-.79,1.53-1.84,2.88-3.16,4.04-1.32,1.16-2.91,2.07-4.76,2.72-1.85.65-4,.97-6.42.97ZM389.29,237.78c2,0,3.77-.4,5.31-1.2s2.74-1.88,3.61-3.24c.87-1.36,1.31-2.91,1.31-4.63v-5.21c-.43.28-1.01.53-1.74.75s-1.56.43-2.48.61c-.92.18-1.83.34-2.75.48s-1.75.26-2.49.37c-1.6.24-2.99.61-4.19,1.12-1.19.51-2.12,1.2-2.78,2.06-.66.86-.99,1.93-.99,3.21,0,1.85.68,3.27,2.03,4.23,1.35.97,3.07,1.45,5.16,1.45Z"/>
    <path class="cls-1" d="M445.22,197.16v10.23h-29.56v-10.23h29.56ZM422.37,185.4h13.62v45.77c0,1.26.19,2.23.58,2.92.38.69.92,1.18,1.61,1.45.69.28,1.5.42,2.41.42.64,0,1.28-.06,1.92-.18s1.13-.21,1.47-.27l2.14,10.13c-.68.21-1.64.46-2.88.75-1.24.29-2.74.46-4.51.53-3.28.13-6.15-.31-8.61-1.31-2.46-1-4.37-2.56-5.74-4.67-1.36-2.11-2.04-4.77-2.01-7.99v-47.56Z"/>
    <path class="cls-1" d="M471.75,247.21c-4.96,0-9.25-1.06-12.86-3.18-3.61-2.12-6.4-5.08-8.36-8.88-1.96-3.8-2.94-8.22-2.94-13.25s.98-9.51,2.94-13.31c1.96-3.8,4.75-6.76,8.36-8.88,3.61-2.12,7.9-3.18,12.86-3.18s9.25,1.06,12.86,3.18,6.4,5.08,8.36,8.88c1.96,3.8,2.94,8.24,2.94,13.31s-.98,9.44-2.94,13.25c-1.96,3.8-4.75,6.77-8.36,8.88-3.61,2.12-7.9,3.18-12.86,3.18ZM471.82,236.66c2.26,0,4.14-.64,5.66-1.93,1.51-1.29,2.66-3.05,3.44-5.29.78-2.24,1.17-4.78,1.17-7.64s-.39-5.4-1.17-7.64c-.78-2.24-1.92-4.01-3.44-5.31-1.51-1.3-3.4-1.95-5.66-1.95s-4.19.65-5.74,1.95c-1.54,1.3-2.71,3.07-3.48,5.31-.78,2.24-1.17,4.78-1.17,7.64s.39,5.4,1.17,7.64c.78,2.24,1.94,4,3.48,5.29s3.46,1.93,5.74,1.93Z"/>
    <path class="cls-1" d="M500.3,246.25v-49.09h13.2v8.57h.51c.89-3.05,2.4-5.35,4.51-6.92,2.11-1.57,4.54-2.35,7.29-2.35.68,0,1.42.04,2.21.13s1.48.2,2.08.35v12.08c-.64-.19-1.52-.36-2.65-.51-1.13-.15-2.16-.22-3.1-.22-2,0-3.79.43-5.35,1.29-1.57.86-2.8,2.06-3.71,3.6s-1.36,3.3-1.36,5.31v27.77h-13.61Z"/>
  </g>
</svg>