<!--?xml version="1.0" encoding="us-ascii" standalone="no"?--><svg xmlns="http://www.w3.org/2000/svg" xmlns:xlink="http://www.w3.org/1999/xlink" contentstyletype="text/css" height="531px" preserveAspectRatio="none" style="width:703px;height:531px;background:#FFFFFF;" version="1.1" viewBox="0 0 703 531" width="703px" zoomAndPan="magnify"><defs></defs><g><rect fill="#FFFFFF" height="320.4609" style="stroke:#181818;stroke-width:1.0;" width="10" x="227" y="112.4297"></rect><rect fill="#FFFFFF" height="87.3984" style="stroke:#181818;stroke-width:1.0;" width="10" x="456" y="141.5625"></rect><rect fill="#FFFFFF" height="125.5313" style="stroke:#181818;stroke-width:1.0;" width="10" x="456" y="316.3594"></rect><line style="stroke:#181818;stroke-width:0.5;stroke-dasharray:5.0,5.0;" x1="24" x2="24" y1="81.2969" y2="450.8906"></line><line style="stroke:#181818;stroke-width:0.5;stroke-dasharray:5.0,5.0;" x1="232" x2="232" y1="81.2969" y2="450.8906"></line><line style="stroke:#181818;stroke-width:0.5;stroke-dasharray:5.0,5.0;" x1="460.5" x2="460.5" y1="81.2969" y2="450.8906"></line><line style="stroke:#181818;stroke-width:0.5;stroke-dasharray:5.0,5.0;" x1="666" x2="666" y1="81.2969" y2="450.8906"></line><text fill="#000000" font-family="sans-serif" font-size="14" lengthAdjust="spacing" textLength="32" x="5" y="77.9951">User</text><ellipse cx="24" cy="13.5" fill="#E2E2F0" rx="8" ry="8" style="stroke:#181818;stroke-width:0.5;"></ellipse><path d="M24,21.5 L24,48.5 M11,29.5 L37,29.5 M24,48.5 L11,63.5 M24,48.5 L37,63.5 " fill="none" style="stroke:#181818;stroke-width:0.5;"></path><text fill="#000000" font-family="sans-serif" font-size="14" lengthAdjust="spacing" textLength="32" x="5" y="462.8857">User</text><ellipse cx="24" cy="474.6875" fill="#E2E2F0" rx="8" ry="8" style="stroke:#181818;stroke-width:0.5;"></ellipse><path d="M24,482.6875 L24,509.6875 M11,490.6875 L37,490.6875 M24,509.6875 L11,524.6875 M24,509.6875 L37,524.6875 " fill="none" style="stroke:#181818;stroke-width:0.5;"></path><rect fill="#E2E2F0" height="30.2969" rx="2.5" ry="2.5" style="stroke:#181818;stroke-width:0.5;" width="178" x="143" y="50"></rect><text fill="#000000" font-family="sans-serif" font-size="14" lengthAdjust="spacing" textLength="164" x="150" y="69.9951">Advertisement Interface</text><rect fill="#E2E2F0" height="30.2969" rx="2.5" ry="2.5" style="stroke:#181818;stroke-width:0.5;" width="178" x="143" y="449.8906"></rect><text fill="#000000" font-family="sans-serif" font-size="14" lengthAdjust="spacing" textLength="164" x="150" y="469.8857">Advertisement Interface</text><rect fill="#E2E2F0" height="30.2969" rx="2.5" ry="2.5" style="stroke:#181818;stroke-width:0.5;" width="111" x="405.5" y="50"></rect><text fill="#000000" font-family="sans-serif" font-size="14" lengthAdjust="spacing" textLength="97" x="412.5" y="69.9951">Edit Controller</text><rect fill="#E2E2F0" height="30.2969" rx="2.5" ry="2.5" style="stroke:#181818;stroke-width:0.5;" width="111" x="405.5" y="449.8906"></rect><text fill="#000000" font-family="sans-serif" font-size="14" lengthAdjust="spacing" textLength="97" x="412.5" y="469.8857">Edit Controller</text><text fill="#000000" font-family="sans-serif" font-size="14" lengthAdjust="spacing" textLength="66" x="630" y="77.9951">Database</text><path d="M648,29 C648,19 666,19 666,19 C666,19 684,19 684,29 L684,55 C684,65 666,65 666,65 C666,65 648,65 648,55 L648,29 " fill="#E2E2F0" style="stroke:#181818;stroke-width:1.5;"></path><path d="M648,29 C648,39 666,39 666,39 C666,39 684,39 684,29 " fill="none" style="stroke:#181818;stroke-width:1.5;"></path><text fill="#000000" font-family="sans-serif" font-size="14" lengthAdjust="spacing" textLength="66" x="630" y="462.8857">Database</text><path d="M648,476.1875 C648,466.1875 666,466.1875 666,466.1875 C666,466.1875 684,466.1875 684,476.1875 L684,502.1875 C684,512.1875 666,512.1875 666,512.1875 C666,512.1875 648,512.1875 648,502.1875 L648,476.1875 " fill="#E2E2F0" style="stroke:#181818;stroke-width:1.5;"></path><path d="M648,476.1875 C648,486.1875 666,486.1875 666,486.1875 C666,486.1875 684,486.1875 684,476.1875 " fill="none" style="stroke:#181818;stroke-width:1.5;"></path><rect fill="#FFFFFF" height="320.4609" style="stroke:#181818;stroke-width:1.0;" width="10" x="227" y="112.4297"></rect><rect fill="#FFFFFF" height="87.3984" style="stroke:#181818;stroke-width:1.0;" width="10" x="456" y="141.5625"></rect><rect fill="#FFFFFF" height="125.5313" style="stroke:#181818;stroke-width:1.0;" width="10" x="456" y="316.3594"></rect><polygon fill="#181818" points="215,108.4297,225,112.4297,215,116.4297,219,112.4297" style="stroke:#181818;stroke-width:1.0;"></polygon><line style="stroke:#181818;stroke-width:1.0;" x1="24" x2="221" y1="112.4297" y2="112.4297"></line><text fill="#000000" font-family="sans-serif" font-size="13" lengthAdjust="spacing" textLength="99" x="31" y="107.3638">selectEdit(adId)</text><polygon fill="#181818" points="444,137.5625,454,141.5625,444,145.5625,448,141.5625" style="stroke:#181818;stroke-width:1.0;"></polygon><line style="stroke:#181818;stroke-width:1.0;" x1="237" x2="450" y1="141.5625" y2="141.5625"></line><text fill="#000000" font-family="sans-serif" font-size="13" lengthAdjust="spacing" textLength="104" x="244" y="136.4966">initiateEdit(adId)</text><polygon fill="#181818" points="654,166.6953,664,170.6953,654,174.6953,658,170.6953" style="stroke:#181818;stroke-width:1.0;"></polygon><line style="stroke:#181818;stroke-width:1.0;" x1="466" x2="660" y1="170.6953" y2="170.6953"></line><text fill="#000000" font-family="sans-serif" font-size="13" lengthAdjust="spacing" textLength="86" x="473" y="165.6294">fetchAd(adId)</text><polygon fill="#181818" points="477,195.8281,467,199.8281,477,203.8281,473,199.8281" style="stroke:#181818;stroke-width:1.0;"></polygon><line style="stroke:#181818;stroke-width:1.0;stroke-dasharray:2.0,2.0;" x1="471" x2="665" y1="199.8281" y2="199.8281"></line><text fill="#000000" font-family="sans-serif" font-size="13" lengthAdjust="spacing" textLength="60" x="483" y="194.7622">adDetails</text><polygon fill="#181818" points="248,224.9609,238,228.9609,248,232.9609,244,228.9609" style="stroke:#181818;stroke-width:1.0;"></polygon><line style="stroke:#181818;stroke-width:1.0;" x1="242" x2="460" y1="228.9609" y2="228.9609"></line><text fill="#000000" font-family="sans-serif" font-size="13" lengthAdjust="spacing" textLength="159" x="254" y="223.895">showEditForm(adDetails)</text><polygon fill="#181818" points="35,254.0938,25,258.0938,35,262.0938,31,258.0938" style="stroke:#181818;stroke-width:1.0;"></polygon><line style="stroke:#181818;stroke-width:1.0;" x1="29" x2="226" y1="258.0938" y2="258.0938"></line><text fill="#000000" font-family="sans-serif" font-size="13" lengthAdjust="spacing" textLength="87" x="41" y="253.0278">displayForm()</text><polygon fill="#181818" points="215,283.2266,225,287.2266,215,291.2266,219,287.2266" style="stroke:#181818;stroke-width:1.0;"></polygon><line style="stroke:#181818;stroke-width:1.0;" x1="24" x2="221" y1="287.2266" y2="287.2266"></line><text fill="#000000" font-family="sans-serif" font-size="13" lengthAdjust="spacing" textLength="179" x="31" y="282.1606">submitChanges(newDetails)</text><polygon fill="#181818" points="444,312.3594,454,316.3594,444,320.3594,448,316.3594" style="stroke:#181818;stroke-width:1.0;"></polygon><line style="stroke:#181818;stroke-width:1.0;" x1="237" x2="450" y1="316.3594" y2="316.3594"></line><text fill="#000000" font-family="sans-serif" font-size="13" lengthAdjust="spacing" textLength="200" x="244" y="311.2935">saveChanges(adId, newDetails)</text><polygon fill="#181818" points="654,341.4922,664,345.4922,654,349.4922,658,345.4922" style="stroke:#181818;stroke-width:1.0;"></polygon><line style="stroke:#181818;stroke-width:1.0;" x1="466" x2="660" y1="345.4922" y2="345.4922"></line><text fill="#000000" font-family="sans-serif" font-size="13" lengthAdjust="spacing" textLength="176" x="473" y="340.4263">updateAd(adId, newDetails)</text><polygon fill="#181818" points="477,370.625,467,374.625,477,378.625,473,374.625" style="stroke:#181818;stroke-width:1.0;"></polygon><line style="stroke:#181818;stroke-width:1.0;stroke-dasharray:2.0,2.0;" x1="471" x2="665" y1="374.625" y2="374.625"></line><text fill="#000000" font-family="sans-serif" font-size="13" lengthAdjust="spacing" textLength="113" x="483" y="369.5591">updateSuccessful</text><polygon fill="#181818" points="248,399.7578,238,403.7578,248,407.7578,244,403.7578" style="stroke:#181818;stroke-width:1.0;"></polygon><line style="stroke:#181818;stroke-width:1.0;stroke-dasharray:2.0,2.0;" x1="242" x2="455" y1="403.7578" y2="403.7578"></line><text fill="#000000" font-family="sans-serif" font-size="13" lengthAdjust="spacing" textLength="164" x="254" y="398.6919">displaySuccessMessage()</text><polygon fill="#181818" points="35,428.8906,25,432.8906,35,436.8906,31,432.8906" style="stroke:#181818;stroke-width:1.0;"></polygon><line style="stroke:#181818;stroke-width:1.0;stroke-dasharray:2.0,2.0;" x1="29" x2="231" y1="432.8906" y2="432.8906"></line><text fill="#000000" font-family="sans-serif" font-size="13" lengthAdjust="spacing" textLength="95" x="41" y="427.8247">showSuccess()</text><!--SRC=[ZP7DReCm48JlVWgB4qZD2-HGAGcjb4DELTNpOY_1acEGlH3rxRkcBd_Yq0CIYxwPtHb0KUlbPq0lEl1abEd0aSnEUa0U0pwGnwiZz3Kep2G4-ONL6dxJXkIbTUHRQz6Fq3mA3GGL19HPcTv6eZmB4HVBmskqb4SPqAAYw9Q3lkf2W28p0E6uCZACpiQiCCwGOM1FixX0B4HiKPvPMYEfvgIJYZyTjkQWIoGmDcpawTYcVSQrxwr_v1DQ28sx5wJhny17gKteB7oFscBRGbyz35qQS7SCkSFdPBtNG801_zWOvKKk5Vyje-_u9s5gOssnryml_j4hXI7KlLrPJa5Io8JT-84xvYd6t4KiCZ7vgZxcVW00]--></g></svg>