<!--?xml version="1.0" encoding="us-ascii" standalone="no"?--><svg xmlns="http://www.w3.org/2000/svg" xmlns:xlink="http://www.w3.org/1999/xlink" contentstyletype="text/css" height="508px" preserveAspectRatio="none" style="width:435px;height:508px;background:#FFFFFF;" version="1.1" viewBox="0 0 435 508" width="435px" zoomAndPan="magnify"><defs></defs><g><!--cluster Administracja systemem--><g id="cluster_Administracja systemem"><rect fill="none" height="495" rx="2.5" ry="2.5" style="stroke:#181818;stroke-width:1.0;" width="239.24" x="190" y="7"></rect><text fill="#000000" font-family="sans-serif" font-size="14" font-weight="bold" lengthAdjust="spacing" textLength="192" x="213.62" y="21.9951">Administracja systemem</text></g><g id="elem_Zarządzaj użytkownikami"><ellipse cx="309.6177" cy="228.0035" fill="#F1F1F1" rx="103.6177" ry="23.1235" style="stroke:#181818;stroke-width:0.5;"></ellipse><text fill="#000000" font-family="sans-serif" font-size="14" lengthAdjust="spacing" textLength="172" x="223.6177" y="230.8502">Zarządzaj użytkownikami</text></g><g id="elem_Moderuj ogłoszenia"><ellipse cx="309.6168" cy="465.9974" fill="#F1F1F1" rx="87.0368" ry="19.8074" style="stroke:#181818;stroke-width:0.5;"></ellipse><text fill="#000000" font-family="sans-serif" font-size="14" lengthAdjust="spacing" textLength="135" x="242.1168" y="468.844">Moderuj ogłoszenia</text></g><g id="elem_Dodaj użytkownika"><ellipse cx="309.6163" cy="60.9953" fill="#F1F1F1" rx="84.4263" ry="19.2853" style="stroke:#181818;stroke-width:0.5;"></ellipse><text fill="#000000" font-family="sans-serif" font-size="14" lengthAdjust="spacing" textLength="129" x="244.995" y="63.8839">Dodaj użytkownika</text></g><g id="elem_Usuń użytkownika"><ellipse cx="309.622" cy="134.0024" fill="#F1F1F1" rx="82.712" ry="18.9424" style="stroke:#181818;stroke-width:0.5;"></ellipse><text fill="#000000" font-family="sans-serif" font-size="14" lengthAdjust="spacing" textLength="125" x="246.4308" y="137.0815">Usuń użytkownika</text></g><g id="elem_Usuń ogłoszenie"><ellipse cx="309.6152" cy="304.003" fill="#F1F1F1" rx="78.9652" ry="18.193" style="stroke:#181818;stroke-width:0.5;"></ellipse><text fill="#000000" font-family="sans-serif" font-size="14" lengthAdjust="spacing" textLength="116" x="249.55" y="307.4986">Usuń ogłoszenie</text></g><g id="elem_Edytuj ogłoszenie"><ellipse cx="309.6155" cy="375.9991" fill="#F1F1F1" rx="81.4455" ry="18.6891" style="stroke:#181818;stroke-width:0.5;"></ellipse><text fill="#000000" font-family="sans-serif" font-size="14" lengthAdjust="spacing" textLength="122" x="247.4809" y="379.219">Edytuj ogłoszenie</text></g><!--entity admin--><g id="elem_admin"><ellipse cx="51.5" cy="385.35" fill="#F1F1F1" rx="8" ry="8" style="stroke:#181818;stroke-width:0.5;"></ellipse><path d="M51.5,393.35 L51.5,420.35 M38.5,401.35 L64.5,401.35 M51.5,420.35 L38.5,435.35 M51.5,420.35 L64.5,435.35 " fill="none" style="stroke:#181818;stroke-width:0.5;"></path><text fill="#000000" font-family="sans-serif" font-size="14" lengthAdjust="spacing" textLength="91" x="6" y="449.8451">Administrator</text></g><!--link admin to Zarz?dzaj u?ytkownikami--><g id="link_admin_Zarządzaj użytkownikami"><path d="M97.43,404.24 C124.19,395.38 156.3,379.92 174,354 C184.82,338.15 169.95,282.94 182,268 C192.28,255.26 206.59,246.51 221.92,240.52 " fill="none" id="admin-Zarządzaj użytkownikami" style="stroke:#181818;stroke-width:1.0;"></path></g><!--link admin to Moderuj og?oszenia--><g id="link_admin_Moderuj ogłoszenia"><path d="M97.41,423.94 C137.72,431.97 197.4,443.85 243.05,452.94 " fill="none" id="admin-Moderuj ogłoszenia" style="stroke:#181818;stroke-width:1.0;"></path></g><!--link Zarz?dzaj u?ytkownikami to Dodaj u?ytkownika--><g id="link_Zarządzaj użytkownikami_Dodaj użytkownika"><path d="M230.66,212.7 C185.14,199.32 139.44,175.42 153.52,134.5 C165.6,99.38 196.813,82.6146 231.763,73.0446 " fill="none" id="Zarządzaj użytkownikami-to-Dodaj użytkownika" style="stroke:#181818;stroke-width:1.0;stroke-dasharray:7.0,7.0;"></path><polygon fill="#181818" points="237.55,71.46,227.8131,69.9789,232.7275,72.7805,229.9259,77.6949,237.55,71.46" style="stroke:#181818;stroke-width:1.0;"></polygon><text fill="#000000" font-family="sans-serif" font-size="13" lengthAdjust="spacing" textLength="45" x="128" y="147.5669">include</text></g><!--link Zarz?dzaj u?ytkownikami to Usu? u?ytkownika--><g id="link_Zarządzaj użytkownikami_Usuń użytkownika"><path d="M309.62,204.76 C309.62,188.89 309.62,174.1 309.62,159.17 " fill="none" id="Zarządzaj użytkownikami-to-Usuń użytkownika" style="stroke:#181818;stroke-width:1.0;stroke-dasharray:7.0,7.0;"></path><polygon fill="#181818" points="309.62,153.17,305.62,162.17,309.62,158.17,313.62,162.17,309.62,153.17" style="stroke:#181818;stroke-width:1.0;"></polygon><text fill="#000000" font-family="sans-serif" font-size="13" lengthAdjust="spacing" textLength="45" x="275.62" y="183.4769">include</text></g><!--link Moderuj og?oszenia to Usu? og?oszenie--><g id="link_Moderuj ogłoszenia_Usuń ogłoszenie"><path d="M250.14,451.28 C226.54,442.98 200.63,430.45 182,412 C154.44,384.71 128.4,359.06 153.52,329.5 C173.53,305.96 200.0957,298.4517 230.3257,297.1317 " fill="none" id="Moderuj ogłoszenia-to-Usuń ogłoszenie" style="stroke:#181818;stroke-width:1.0;stroke-dasharray:7.0,7.0;"></path><polygon fill="#181818" points="236.32,296.87,227.1541,293.2664,231.3248,297.0881,227.5031,301.2588,236.32,296.87" style="stroke:#181818;stroke-width:1.0;"></polygon><text fill="#000000" font-family="sans-serif" font-size="13" lengthAdjust="spacing" textLength="45" x="128" y="342.5669">include</text></g><!--link Moderuj og?oszenia to Edytuj og?oszenie--><g id="link_Moderuj ogłoszenia_Edytuj ogłoszenie"><path d="M309.62,446.03 C309.62,430.8 309.62,415.97 309.62,400.99 " fill="none" id="Moderuj ogłoszenia-to-Edytuj ogłoszenie" style="stroke:#181818;stroke-width:1.0;stroke-dasharray:7.0,7.0;"></path><polygon fill="#181818" points="309.62,394.99,305.62,403.99,309.62,399.99,313.62,403.99,309.62,394.99" style="stroke:#181818;stroke-width:1.0;"></polygon><text fill="#000000" font-family="sans-serif" font-size="13" lengthAdjust="spacing" textLength="45" x="275.62" y="425.0069">include</text></g><!--SRC=[ZOun2i9044NxdE9ZbHJn01Q2eAMbZTsG7UF4P1Ts9qWYDgAtiZJtac2X4GcMy_vxC2Nl5EhW9TyhZ7ZEL9oDA5FdiJ2LM0dggRyeW7eGzHBPl6HCtaPM448Jb2kk9ZX5UCb8KyHRyktZPbegK7VtHW_kQEL0bIG3RUqC-xg0oxkB2orReLuOoJ6T8ruwyxKac45iLjQ6_-WteUwkO_sllpxAD-P_mvLfTC07vVa9]--></g></svg>