<!--?xml version="1.0" encoding="us-ascii" standalone="no"?--><svg xmlns="http://www.w3.org/2000/svg" xmlns:xlink="http://www.w3.org/1999/xlink" contentstyletype="text/css" height="110px" preserveAspectRatio="none" style="width:681px;height:110px;background:#FFFFFF;" version="1.1" viewBox="0 0 681 110" width="681px" zoomAndPan="magnify"><defs></defs><g><!--cluster Front End--><g id="cluster_Front End"><path d="M8.5,6 L85.5,6 A3.75,3.75 0 0 1 88,8.5 L95,28.2969 L171.5,28.2969 A2.5,2.5 0 0 1 174,30.7969 L174,100.8 A2.5,2.5 0 0 1 171.5,103.3 L8.5,103.3 A2.5,2.5 0 0 1 6,100.8 L6,8.5 A2.5,2.5 0 0 1 8.5,6 " fill="none" style="stroke:#000000;stroke-width:1.5;"></path><line style="stroke:#000000;stroke-width:1.5;" x1="6" x2="95" y1="28.2969" y2="28.2969"></line><text fill="#000000" font-family="sans-serif" font-size="14" font-weight="bold" lengthAdjust="spacing" textLength="76" x="10" y="20.9951">Front End</text></g><!--cluster Back End--><g id="cluster_Back End"><path d="M284.5,6 L356.5,6 A3.75,3.75 0 0 1 359,8.5 L366,28.2969 L671.5,28.2969 A2.5,2.5 0 0 1 674,30.7969 L674,100.8 A2.5,2.5 0 0 1 671.5,103.3 L284.5,103.3 A2.5,2.5 0 0 1 282,100.8 L282,8.5 A2.5,2.5 0 0 1 284.5,6 " fill="none" style="stroke:#000000;stroke-width:1.5;"></path><line style="stroke:#000000;stroke-width:1.5;" x1="282" x2="366" y1="28.2969" y2="28.2969"></line><text fill="#000000" font-family="sans-serif" font-size="14" font-weight="bold" lengthAdjust="spacing" textLength="71" x="286" y="20.9951">Back End</text></g><!--entity User Interface--><g id="elem_User Interface"><rect fill="#F1F1F1" height="46.2969" rx="2.5" ry="2.5" style="stroke:#181818;stroke-width:0.5;" width="136" x="22" y="41"></rect><rect fill="#F1F1F1" height="10" style="stroke:#181818;stroke-width:0.5;" width="15" x="138" y="46"></rect><rect fill="#F1F1F1" height="2" style="stroke:#181818;stroke-width:0.5;" width="4" x="136" y="48"></rect><rect fill="#F1F1F1" height="2" style="stroke:#181818;stroke-width:0.5;" width="4" x="136" y="52"></rect><text fill="#000000" font-family="sans-serif" font-size="14" lengthAdjust="spacing" textLength="96" x="37" y="73.9951">User Interface</text></g><!--entity Server--><g id="elem_Server"><rect fill="#F1F1F1" height="46.2969" rx="2.5" ry="2.5" style="stroke:#181818;stroke-width:0.5;" width="84" x="298" y="41"></rect><rect fill="#F1F1F1" height="10" style="stroke:#181818;stroke-width:0.5;" width="15" x="362" y="46"></rect><rect fill="#F1F1F1" height="2" style="stroke:#181818;stroke-width:0.5;" width="4" x="360" y="48"></rect><rect fill="#F1F1F1" height="2" style="stroke:#181818;stroke-width:0.5;" width="4" x="360" y="52"></rect><text fill="#000000" font-family="sans-serif" font-size="14" lengthAdjust="spacing" textLength="44" x="313" y="73.9951">Server</text></g><!--entity Database--><g id="elem_Database"><rect fill="#F1F1F1" height="46.2969" rx="2.5" ry="2.5" style="stroke:#181818;stroke-width:0.5;" width="106" x="552" y="41"></rect><rect fill="#F1F1F1" height="10" style="stroke:#181818;stroke-width:0.5;" width="15" x="638" y="46"></rect><rect fill="#F1F1F1" height="2" style="stroke:#181818;stroke-width:0.5;" width="4" x="636" y="48"></rect><rect fill="#F1F1F1" height="2" style="stroke:#181818;stroke-width:0.5;" width="4" x="636" y="52"></rect><text fill="#000000" font-family="sans-serif" font-size="14" lengthAdjust="spacing" textLength="66" x="567" y="73.9951">Database</text></g><!--link User Interface to Server--><g id="link_User Interface_Server"><path d="M158.31,64.15 C202.84,64.15 253.54,64.15 291.66,64.15 " fill="none" id="User Interface-to-Server" style="stroke:#181818;stroke-width:1.0;"></path><polygon fill="#181818" points="297.66,64.15,288.66,60.15,292.66,64.15,288.66,68.15,297.66,64.15" style="stroke:#181818;stroke-width:1.0;"></polygon><text fill="#000000" font-family="sans-serif" font-size="13" lengthAdjust="spacing" textLength="103" x="176.5" y="57.2169">sends user data</text></g><!--link Server to Database--><g id="link_Server_Database"><path d="M382.28,64.15 C428.31,64.15 496.01,64.15 545.9,64.15 " fill="none" id="Server-to-Database" style="stroke:#181818;stroke-width:1.0;"></path><polygon fill="#181818" points="551.9,64.15,542.9,60.15,546.9,64.15,542.9,68.15,551.9,64.15" style="stroke:#181818;stroke-width:1.0;"></polygon><text fill="#000000" font-family="sans-serif" font-size="13" lengthAdjust="spacing" textLength="133" x="400.5" y="57.2169">stores/retrieves data</text></g><!--SRC=[NSon2i9040JGVhzYI2_s5XQYWhLOIOerDue8bx2xfX7_tPpY8NO3ysO6xMvw8PgjzJcmoQd1Gu3ZmMdOvQ2TjMChJv7XQrTJ-A5xsaXhIrnhw4dzu_y_C5jMZ0MSEJdknQHf9hKgh1uL6BtHvyQmAqVwcxy0]--></g></svg>