<!--?xml version="1.0" encoding="us-ascii" standalone="no"?--><svg xmlns="http://www.w3.org/2000/svg" xmlns:xlink="http://www.w3.org/1999/xlink" contentstyletype="text/css" height="332px" preserveAspectRatio="none" style="width:344px;height:332px;background:#FFFFFF;" version="1.1" viewBox="0 0 344 332" width="344px" zoomAndPan="magnify"><defs></defs><g><ellipse cx="167.5" cy="20" fill="#222222" rx="10" ry="10" style="stroke:#222222;stroke-width:1.0;"></ellipse><rect fill="#F1F1F1" height="33.9688" rx="12.5" ry="12.5" style="stroke:#181818;stroke-width:0.5;" width="195" x="70" y="50"></rect><text fill="#000000" font-family="sans-serif" font-size="12" lengthAdjust="spacing" textLength="175" x="80" y="71.1387">Choose 'Add Advertisement'</text><rect fill="#F1F1F1" height="33.9688" rx="12.5" ry="12.5" style="stroke:#181818;stroke-width:0.5;" width="118" x="108.5" y="103.9688"></rect><text fill="#000000" font-family="sans-serif" font-size="12" lengthAdjust="spacing" textLength="98" x="118.5" y="125.1074">Fill out the form</text><polygon fill="#F1F1F1" points="118,157.9375,217,157.9375,229,169.9375,217,181.9375,118,181.9375,106,169.9375,118,157.9375" style="stroke:#181818;stroke-width:0.5;"></polygon><text fill="#000000" font-family="sans-serif" font-size="11" lengthAdjust="spacing" textLength="99" x="118" y="173.7456">Is the form valid?</text><text fill="#000000" font-family="sans-serif" font-size="11" lengthAdjust="spacing" textLength="20" x="86" y="167.3433">yes</text><text fill="#000000" font-family="sans-serif" font-size="11" lengthAdjust="spacing" textLength="14" x="229" y="167.3433">no</text><rect fill="#F1F1F1" height="33.9688" rx="12.5" ry="12.5" style="stroke:#181818;stroke-width:0.5;" width="131" x="16.5" y="191.9375"></rect><text fill="#000000" font-family="sans-serif" font-size="12" lengthAdjust="spacing" textLength="111" x="26.5" y="213.0762">Save to database</text><rect fill="#F1F1F1" height="33.9688" rx="12.5" ry="12.5" style="stroke:#181818;stroke-width:0.5;" width="142" x="11" y="245.9063"></rect><text fill="#000000" font-family="sans-serif" font-size="12" lengthAdjust="spacing" textLength="122" x="21" y="267.0449">Post advertisement</text><ellipse cx="82" cy="310.875" fill="none" rx="11" ry="11" style="stroke:#222222;stroke-width:1.0;"></ellipse><ellipse cx="82" cy="310.875" fill="#222222" rx="6" ry="6" style="stroke:#222222;stroke-width:1.0;"></ellipse><rect fill="#F1F1F1" height="33.9688" rx="12.5" ry="12.5" style="stroke:#181818;stroke-width:0.5;" width="160" x="173" y="191.9375"></rect><text fill="#000000" font-family="sans-serif" font-size="12" lengthAdjust="spacing" textLength="140" x="183" y="213.0762">Display error message</text><ellipse cx="253" cy="256.9063" fill="none" rx="11" ry="11" style="stroke:#222222;stroke-width:1.0;"></ellipse><ellipse cx="253" cy="256.9063" fill="#222222" rx="6" ry="6" style="stroke:#222222;stroke-width:1.0;"></ellipse><line style="stroke:#181818;stroke-width:1.0;" x1="167.5" x2="167.5" y1="30" y2="50"></line><polygon fill="#181818" points="163.5,40,167.5,50,171.5,40,167.5,44" style="stroke:#181818;stroke-width:1.0;"></polygon><line style="stroke:#181818;stroke-width:1.0;" x1="167.5" x2="167.5" y1="83.9688" y2="103.9688"></line><polygon fill="#181818" points="163.5,93.9688,167.5,103.9688,171.5,93.9688,167.5,97.9688" style="stroke:#181818;stroke-width:1.0;"></polygon><line style="stroke:#181818;stroke-width:1.0;" x1="82" x2="82" y1="225.9063" y2="245.9063"></line><polygon fill="#181818" points="78,235.9063,82,245.9063,86,235.9063,82,239.9063" style="stroke:#181818;stroke-width:1.0;"></polygon><line style="stroke:#181818;stroke-width:1.0;" x1="82" x2="82" y1="279.875" y2="299.875"></line><polygon fill="#181818" points="78,289.875,82,299.875,86,289.875,82,293.875" style="stroke:#181818;stroke-width:1.0;"></polygon><line style="stroke:#181818;stroke-width:1.0;" x1="253" x2="253" y1="225.9063" y2="245.9063"></line><polygon fill="#181818" points="249,235.9063,253,245.9063,257,235.9063,253,239.9063" style="stroke:#181818;stroke-width:1.0;"></polygon><line style="stroke:#181818;stroke-width:1.0;" x1="106" x2="82" y1="169.9375" y2="169.9375"></line><line style="stroke:#181818;stroke-width:1.0;" x1="82" x2="82" y1="169.9375" y2="191.9375"></line><polygon fill="#181818" points="78,181.9375,82,191.9375,86,181.9375,82,185.9375" style="stroke:#181818;stroke-width:1.0;"></polygon><line style="stroke:#181818;stroke-width:1.0;" x1="229" x2="253" y1="169.9375" y2="169.9375"></line><line style="stroke:#181818;stroke-width:1.0;" x1="253" x2="253" y1="169.9375" y2="191.9375"></line><polygon fill="#181818" points="249,181.9375,253,191.9375,257,181.9375,253,185.9375" style="stroke:#181818;stroke-width:1.0;"></polygon><line style="stroke:#181818;stroke-width:1.0;" x1="167.5" x2="167.5" y1="137.9375" y2="157.9375"></line><polygon fill="#181818" points="163.5,147.9375,167.5,157.9375,171.5,147.9375,167.5,151.9375" style="stroke:#181818;stroke-width:1.0;"></polygon><!--SRC=[JSx12i8m40JGUxvYRar_eJr8KGHlWb-magqD9DcINGlzUuq7zVgOOKQDghdXk8Weevj2m1GshXQLCnVhHZUSOqgGfy4MnYmrZoxEy1Vz0ZPACHpw1WL-P-qTCDneOvWWaD6TbCU6Lr43_MyqLfFLSNf_y4K-vLFKDT4EhbKgCglIWt_H4kBy0W00]--></g></svg>