<!--?xml version="1.0" encoding="us-ascii" standalone="no"?--><svg xmlns="http://www.w3.org/2000/svg" xmlns:xlink="http://www.w3.org/1999/xlink" contentstyletype="text/css" height="356px" preserveAspectRatio="none" style="width:475px;height:356px;background:#FFFFFF;" version="1.1" viewBox="0 0 475 356" width="475px" zoomAndPan="magnify"><defs></defs><g><line style="stroke:#181818;stroke-width:0.5;stroke-dasharray:5.0,5.0;" x1="24" x2="24" y1="81.2969" y2="276.0938"></line><line style="stroke:#181818;stroke-width:0.5;stroke-dasharray:5.0,5.0;" x1="155.5" x2="155.5" y1="81.2969" y2="276.0938"></line><line style="stroke:#181818;stroke-width:0.5;stroke-dasharray:5.0,5.0;" x1="311.5" x2="311.5" y1="81.2969" y2="276.0938"></line><line style="stroke:#181818;stroke-width:0.5;stroke-dasharray:5.0,5.0;" x1="440" x2="440" y1="81.2969" y2="276.0938"></line><text fill="#000000" font-family="sans-serif" font-size="14" lengthAdjust="spacing" textLength="32" x="5" y="77.9951">User</text><ellipse cx="24" cy="13.5" fill="#E2E2F0" rx="8" ry="8" style="stroke:#181818;stroke-width:0.5;"></ellipse><path d="M24,21.5 L24,48.5 M11,29.5 L37,29.5 M24,48.5 L11,63.5 M24,48.5 L37,63.5 " fill="none" style="stroke:#181818;stroke-width:0.5;"></path><text fill="#000000" font-family="sans-serif" font-size="14" lengthAdjust="spacing" textLength="32" x="5" y="288.0889">User</text><ellipse cx="24" cy="299.8906" fill="#E2E2F0" rx="8" ry="8" style="stroke:#181818;stroke-width:0.5;"></ellipse><path d="M24,307.8906 L24,334.8906 M11,315.8906 L37,315.8906 M24,334.8906 L11,349.8906 M24,334.8906 L37,349.8906 " fill="none" style="stroke:#181818;stroke-width:0.5;"></path><rect fill="#E2E2F0" height="30.2969" rx="2.5" ry="2.5" style="stroke:#181818;stroke-width:0.5;" width="115" x="98.5" y="50"></rect><text fill="#000000" font-family="sans-serif" font-size="14" lengthAdjust="spacing" textLength="101" x="105.5" y="69.9951">Login Interface</text><rect fill="#E2E2F0" height="30.2969" rx="2.5" ry="2.5" style="stroke:#181818;stroke-width:0.5;" width="115" x="98.5" y="275.0938"></rect><text fill="#000000" font-family="sans-serif" font-size="14" lengthAdjust="spacing" textLength="101" x="105.5" y="295.0889">Login Interface</text><rect fill="#E2E2F0" height="30.2969" rx="2.5" ry="2.5" style="stroke:#181818;stroke-width:0.5;" width="169" x="227.5" y="50"></rect><text fill="#000000" font-family="sans-serif" font-size="14" lengthAdjust="spacing" textLength="155" x="234.5" y="69.9951">Authentication System</text><rect fill="#E2E2F0" height="30.2969" rx="2.5" ry="2.5" style="stroke:#181818;stroke-width:0.5;" width="169" x="227.5" y="275.0938"></rect><text fill="#000000" font-family="sans-serif" font-size="14" lengthAdjust="spacing" textLength="155" x="234.5" y="295.0889">Authentication System</text><text fill="#000000" font-family="sans-serif" font-size="14" lengthAdjust="spacing" textLength="21" x="426.5" y="77.9951">DB</text><path d="M422,29 C422,19 440,19 440,19 C440,19 458,19 458,29 L458,55 C458,65 440,65 440,65 C440,65 422,65 422,55 L422,29 " fill="#E2E2F0" style="stroke:#181818;stroke-width:1.5;"></path><path d="M422,29 C422,39 440,39 440,39 C440,39 458,39 458,29 " fill="none" style="stroke:#181818;stroke-width:1.5;"></path><text fill="#000000" font-family="sans-serif" font-size="14" lengthAdjust="spacing" textLength="21" x="426.5" y="288.0889">DB</text><path d="M422,301.3906 C422,291.3906 440,291.3906 440,291.3906 C440,291.3906 458,291.3906 458,301.3906 L458,327.3906 C458,337.3906 440,337.3906 440,337.3906 C440,337.3906 422,337.3906 422,327.3906 L422,301.3906 " fill="#E2E2F0" style="stroke:#181818;stroke-width:1.5;"></path><path d="M422,301.3906 C422,311.3906 440,311.3906 440,311.3906 C440,311.3906 458,311.3906 458,301.3906 " fill="none" style="stroke:#181818;stroke-width:1.5;"></path><polygon fill="#181818" points="144,108.4297,154,112.4297,144,116.4297,148,112.4297" style="stroke:#181818;stroke-width:1.0;"></polygon><line style="stroke:#181818;stroke-width:1.0;" x1="24" x2="150" y1="112.4297" y2="112.4297"></line><text fill="#000000" font-family="sans-serif" font-size="13" lengthAdjust="spacing" textLength="108" x="31" y="107.3638">enter credentials</text><polygon fill="#181818" points="300,137.5625,310,141.5625,300,145.5625,304,141.5625" style="stroke:#181818;stroke-width:1.0;"></polygon><line style="stroke:#181818;stroke-width:1.0;" x1="156" x2="306" y1="141.5625" y2="141.5625"></line><text fill="#000000" font-family="sans-serif" font-size="13" lengthAdjust="spacing" textLength="124" x="163" y="136.4966">validate credentials</text><polygon fill="#181818" points="428,166.6953,438,170.6953,428,174.6953,432,170.6953" style="stroke:#181818;stroke-width:1.0;"></polygon><line style="stroke:#181818;stroke-width:1.0;" x1="312" x2="434" y1="170.6953" y2="170.6953"></line><text fill="#000000" font-family="sans-serif" font-size="13" lengthAdjust="spacing" textLength="101" x="319" y="165.6294">query user data</text><polygon fill="#181818" points="323,195.8281,313,199.8281,323,203.8281,319,199.8281" style="stroke:#181818;stroke-width:1.0;"></polygon><line style="stroke:#181818;stroke-width:1.0;" x1="317" x2="439" y1="199.8281" y2="199.8281"></line><text fill="#000000" font-family="sans-serif" font-size="13" lengthAdjust="spacing" textLength="104" x="329" y="194.7622">return user data</text><polygon fill="#181818" points="167,224.9609,157,228.9609,167,232.9609,163,228.9609" style="stroke:#181818;stroke-width:1.0;"></polygon><line style="stroke:#181818;stroke-width:1.0;" x1="161" x2="311" y1="228.9609" y2="228.9609"></line><text fill="#000000" font-family="sans-serif" font-size="13" lengthAdjust="spacing" textLength="132" x="173" y="223.895">authentication result</text><polygon fill="#181818" points="35,254.0938,25,258.0938,35,262.0938,31,258.0938" style="stroke:#181818;stroke-width:1.0;"></polygon><line style="stroke:#181818;stroke-width:1.0;" x1="29" x2="155" y1="258.0938" y2="258.0938"></line><text fill="#000000" font-family="sans-serif" font-size="13" lengthAdjust="spacing" textLength="84" x="41" y="253.0278">display result</text><!--SRC=[LOux3i8m38RtdCBgpWKw855rgSI6UW2J6eWKqk8uIBqzTbG47UtlVw6NcM7Cn6v1bk33WacWES_ta618Gdn3JmrWXd7OQqv57fJqHWbpWikQXPvLQSHDA7Z5JD1tpba378wQ0IsGnO9dcioECJjzApIRuZV6e6RQAIfJJT-fubM8LoYMQIrEdpyxanHEV_HhhTsu7ysKIvIjluviOGfvYRXkx0C0]--></g></svg>