<!--?xml version="1.0" encoding="us-ascii" standalone="no"?--><svg xmlns="http://www.w3.org/2000/svg" xmlns:xlink="http://www.w3.org/1999/xlink" contentstyletype="text/css" height="507px" preserveAspectRatio="none" style="width:166px;height:507px;background:#FFFFFF;" version="1.1" viewBox="0 0 166 507" width="166px" zoomAndPan="magnify"><defs></defs><g><!--class User--><g id="elem_User"><rect codeline="1" fill="#F1F1F1" height="129.4844" id="User" rx="2.5" ry="2.5" style="stroke:#181818;stroke-width:0.5;" width="145" x="10.5" y="7"></rect><ellipse cx="62.75" cy="23" fill="#ADD1B2" rx="11" ry="11" style="stroke:#181818;stroke-width:1.0;"></ellipse><path d="M65.7188,28.6406 Q65.1406,28.9375 64.5,29.0781 Q63.8594,29.2344 63.1563,29.2344 Q60.6563,29.2344 59.3281,27.5938 Q58.0156,25.9375 58.0156,22.8125 Q58.0156,19.6875 59.3281,18.0313 Q60.6563,16.375 63.1563,16.375 Q63.8594,16.375 64.5,16.5313 Q65.1563,16.6875 65.7188,16.9844 L65.7188,19.7031 Q65.0938,19.125 64.5,18.8594 Q63.9063,18.5781 63.2813,18.5781 Q61.9375,18.5781 61.25,19.6563 Q60.5625,20.7188 60.5625,22.8125 Q60.5625,24.9063 61.25,25.9844 Q61.9375,27.0469 63.2813,27.0469 Q63.9063,27.0469 64.5,26.7813 Q65.0938,26.5 65.7188,25.9219 L65.7188,28.6406 Z " fill="#000000"></path><text fill="#000000" font-family="sans-serif" font-size="14" lengthAdjust="spacing" textLength="32" x="83.25" y="27.8467">User</text><line style="stroke:#181818;stroke-width:0.5;" x1="11.5" x2="154.5" y1="39" y2="39"></line><ellipse cx="21.5" cy="52.6484" fill="none" rx="3" ry="3" style="stroke:#038048;stroke-width:1.0;"></ellipse><text fill="#000000" font-family="sans-serif" font-size="14" lengthAdjust="spacing" textLength="119" x="30.5" y="55.9951">username: String</text><ellipse cx="21.5" cy="68.9453" fill="none" rx="3" ry="3" style="stroke:#038048;stroke-width:1.0;"></ellipse><text fill="#000000" font-family="sans-serif" font-size="14" lengthAdjust="spacing" textLength="85" x="30.5" y="72.292">email: String</text><ellipse cx="21.5" cy="85.2422" fill="none" rx="3" ry="3" style="stroke:#038048;stroke-width:1.0;"></ellipse><text fill="#000000" font-family="sans-serif" font-size="14" lengthAdjust="spacing" textLength="116" x="30.5" y="88.5889">password: String</text><line style="stroke:#181818;stroke-width:0.5;" x1="11.5" x2="154.5" y1="95.8906" y2="95.8906"></line><ellipse cx="21.5" cy="109.5391" fill="#84BE84" rx="3" ry="3" style="stroke:#038048;stroke-width:1.0;"></ellipse><text fill="#000000" font-family="sans-serif" font-size="14" lengthAdjust="spacing" textLength="43" x="30.5" y="112.8857">login()</text><ellipse cx="21.5" cy="125.8359" fill="#84BE84" rx="3" ry="3" style="stroke:#038048;stroke-width:1.0;"></ellipse><text fill="#000000" font-family="sans-serif" font-size="14" lengthAdjust="spacing" textLength="54" x="30.5" y="129.1826">logout()</text></g><!--class Advertisement--><g id="elem_Advertisement"><rect codeline="9" fill="#F1F1F1" height="129.4844" id="Advertisement" rx="2.5" ry="2.5" style="stroke:#181818;stroke-width:0.5;" width="152" x="7" y="213.48"></rect><ellipse cx="31" cy="229.48" fill="#ADD1B2" rx="11" ry="11" style="stroke:#181818;stroke-width:1.0;"></ellipse><path d="M33.9688,235.1206 Q33.3906,235.4175 32.75,235.5581 Q32.1094,235.7144 31.4063,235.7144 Q28.9063,235.7144 27.5781,234.0738 Q26.2656,232.4175 26.2656,229.2925 Q26.2656,226.1675 27.5781,224.5113 Q28.9063,222.855 31.4063,222.855 Q32.1094,222.855 32.75,223.0113 Q33.4063,223.1675 33.9688,223.4644 L33.9688,226.1831 Q33.3438,225.605 32.75,225.3394 Q32.1563,225.0581 31.5313,225.0581 Q30.1875,225.0581 29.5,226.1363 Q28.8125,227.1988 28.8125,229.2925 Q28.8125,231.3863 29.5,232.4644 Q30.1875,233.5269 31.5313,233.5269 Q32.1563,233.5269 32.75,233.2613 Q33.3438,232.98 33.9688,232.4019 L33.9688,235.1206 Z " fill="#000000"></path><text fill="#000000" font-family="sans-serif" font-size="14" lengthAdjust="spacing" textLength="100" x="47" y="234.3267">Advertisement</text><line style="stroke:#181818;stroke-width:0.5;" x1="8" x2="158" y1="245.48" y2="245.48"></line><ellipse cx="18" cy="259.1284" fill="none" rx="3" ry="3" style="stroke:#038048;stroke-width:1.0;"></ellipse><text fill="#000000" font-family="sans-serif" font-size="14" lengthAdjust="spacing" textLength="74" x="27" y="262.4751">title: String</text><ellipse cx="18" cy="275.4253" fill="none" rx="3" ry="3" style="stroke:#038048;stroke-width:1.0;"></ellipse><text fill="#000000" font-family="sans-serif" font-size="14" lengthAdjust="spacing" textLength="126" x="27" y="278.772">description: String</text><ellipse cx="18" cy="291.7222" fill="none" rx="3" ry="3" style="stroke:#038048;stroke-width:1.0;"></ellipse><text fill="#000000" font-family="sans-serif" font-size="14" lengthAdjust="spacing" textLength="93" x="27" y="295.0689">price: Double</text><line style="stroke:#181818;stroke-width:0.5;" x1="8" x2="158" y1="302.3706" y2="302.3706"></line><ellipse cx="18" cy="316.0191" fill="#84BE84" rx="3" ry="3" style="stroke:#038048;stroke-width:1.0;"></ellipse><text fill="#000000" font-family="sans-serif" font-size="14" lengthAdjust="spacing" textLength="41" x="27" y="319.3657">post()</text><ellipse cx="18" cy="332.3159" fill="#84BE84" rx="3" ry="3" style="stroke:#038048;stroke-width:1.0;"></ellipse><text fill="#000000" font-family="sans-serif" font-size="14" lengthAdjust="spacing" textLength="54" x="27" y="335.6626">delete()</text></g><!--class Payment--><g id="elem_Payment"><rect codeline="17" fill="#F1F1F1" height="80.5938" id="Payment" rx="2.5" ry="2.5" style="stroke:#181818;stroke-width:0.5;" width="152" x="7" y="419.97"></rect><ellipse cx="49" cy="435.97" fill="#ADD1B2" rx="11" ry="11" style="stroke:#181818;stroke-width:1.0;"></ellipse><path d="M51.9688,441.6106 Q51.3906,441.9075 50.75,442.0481 Q50.1094,442.2044 49.4063,442.2044 Q46.9063,442.2044 45.5781,440.5637 Q44.2656,438.9075 44.2656,435.7825 Q44.2656,432.6575 45.5781,431.0012 Q46.9063,429.345 49.4063,429.345 Q50.1094,429.345 50.75,429.5012 Q51.4063,429.6575 51.9688,429.9544 L51.9688,432.6731 Q51.3438,432.095 50.75,431.8294 Q50.1563,431.5481 49.5313,431.5481 Q48.1875,431.5481 47.5,432.6262 Q46.8125,433.6887 46.8125,435.7825 Q46.8125,437.8762 47.5,438.9544 Q48.1875,440.0169 49.5313,440.0169 Q50.1563,440.0169 50.75,439.7512 Q51.3438,439.47 51.9688,438.8919 L51.9688,441.6106 Z " fill="#000000"></path><text fill="#000000" font-family="sans-serif" font-size="14" lengthAdjust="spacing" textLength="60" x="69" y="440.8167">Payment</text><line style="stroke:#181818;stroke-width:0.5;" x1="8" x2="158" y1="451.97" y2="451.97"></line><ellipse cx="18" cy="465.6184" fill="none" rx="3" ry="3" style="stroke:#038048;stroke-width:1.0;"></ellipse><text fill="#000000" font-family="sans-serif" font-size="14" lengthAdjust="spacing" textLength="112" x="27" y="468.9651">amount: Double</text><line style="stroke:#181818;stroke-width:0.5;" x1="8" x2="158" y1="476.2669" y2="476.2669"></line><ellipse cx="18" cy="489.9153" fill="#84BE84" rx="3" ry="3" style="stroke:#038048;stroke-width:1.0;"></ellipse><text fill="#000000" font-family="sans-serif" font-size="14" lengthAdjust="spacing" textLength="126" x="27" y="493.262">processPayment()</text></g><!--link User to Advertisement--><g id="link_User_Advertisement"><path codeline="22" d="M83,136.88 C83,161.24 83,188.97 83,213.31 " fill="none" id="User-Advertisement" style="stroke:#181818;stroke-width:1.0;"></path><polygon fill="#000000" points="88,180.0464,90.9389,171.0013,85.0611,171.0013,88,180.0464" style="stroke:#000000;stroke-width:1.0;"></polygon><text fill="#000000" font-family="sans-serif" font-size="13" lengthAdjust="spacing" textLength="35" x="97" y="179.5469">posts</text><text fill="#000000" font-family="sans-serif" font-size="13" lengthAdjust="spacing" textLength="8" x="74.5875" y="156.4445">1</text><text fill="#000000" font-family="sans-serif" font-size="13" lengthAdjust="spacing" textLength="7" x="75.6172" y="202.4641">*</text></g><!--link Advertisement to Payment--><g id="link_Advertisement_Payment"><path codeline="23" d="M83,343.46 C83,368.91 83,397.36 83,419.69 " fill="none" id="Advertisement-Payment" style="stroke:#181818;stroke-width:1.0;"></path><polygon fill="#000000" points="88,386.5364,90.9389,377.4913,85.0611,377.4913,88,386.5364" style="stroke:#000000;stroke-width:1.0;"></polygon><text fill="#000000" font-family="sans-serif" font-size="13" lengthAdjust="spacing" textLength="52" x="97" y="386.0369">includes</text><text fill="#000000" font-family="sans-serif" font-size="13" lengthAdjust="spacing" textLength="8" x="74.5875" y="363.0348">1</text><text fill="#000000" font-family="sans-serif" font-size="13" lengthAdjust="spacing" textLength="24" x="57.0125" y="408.8052">0..1</text></g><!--SRC=[NO_B2i9034Nt_OhGbGzQTDj5GV031F43nfbG0jEPCiae8lwxqnUsxYw7t9n4MyKCDyO0xmnW7rDogiKAhXB8DJt3Lf5TWYvrdZwO9RE-8RVPJj57IVcJPNhOVp8F34ACBJePHK9YLnQ3h0DrGjwjN85qcZlxUBSu0CyoUWnQ55nwBkhrCwZMHoUhQl0QcQUfiJYydXzpA0h8T_dVgHNqEeOwM_EvS2ZBb6Pj1UIqZUaJgBy0]--></g></svg>