<!--?xml version="1.0" encoding="us-ascii" standalone="no"?--><svg xmlns="http://www.w3.org/2000/svg" xmlns:xlink="http://www.w3.org/1999/xlink" contentstyletype="text/css" height="356px" preserveAspectRatio="none" style="width:684px;height:356px;background:#FFFFFF;" version="1.1" viewBox="0 0 684 356" width="684px" zoomAndPan="magnify"><defs></defs><g><rect fill="#FFFFFF" height="145.6641" style="stroke:#181818;stroke-width:1.0;" width="10" x="233" y="112.4297"></rect><rect fill="#FFFFFF" height="58.2656" style="stroke:#181818;stroke-width:1.0;" width="10" x="462" y="141.5625"></rect><line style="stroke:#181818;stroke-width:0.5;stroke-dasharray:5.0,5.0;" x1="24" x2="24" y1="81.2969" y2="276.0938"></line><line style="stroke:#181818;stroke-width:0.5;stroke-dasharray:5.0,5.0;" x1="238" x2="238" y1="81.2969" y2="276.0938"></line><line style="stroke:#181818;stroke-width:0.5;stroke-dasharray:5.0,5.0;" x1="466.5" x2="466.5" y1="81.2969" y2="276.0938"></line><line style="stroke:#181818;stroke-width:0.5;stroke-dasharray:5.0,5.0;" x1="647" x2="647" y1="81.2969" y2="276.0938"></line><text fill="#000000" font-family="sans-serif" font-size="14" lengthAdjust="spacing" textLength="32" x="5" y="77.9951">User</text><ellipse cx="24" cy="13.5" fill="#E2E2F0" rx="8" ry="8" style="stroke:#181818;stroke-width:0.5;"></ellipse><path d="M24,21.5 L24,48.5 M11,29.5 L37,29.5 M24,48.5 L11,63.5 M24,48.5 L37,63.5 " fill="none" style="stroke:#181818;stroke-width:0.5;"></path><text fill="#000000" font-family="sans-serif" font-size="14" lengthAdjust="spacing" textLength="32" x="5" y="288.0889">User</text><ellipse cx="24" cy="299.8906" fill="#E2E2F0" rx="8" ry="8" style="stroke:#181818;stroke-width:0.5;"></ellipse><path d="M24,307.8906 L24,334.8906 M11,315.8906 L37,315.8906 M24,334.8906 L11,349.8906 M24,334.8906 L37,349.8906 " fill="none" style="stroke:#181818;stroke-width:0.5;"></path><rect fill="#E2E2F0" height="30.2969" rx="2.5" ry="2.5" style="stroke:#181818;stroke-width:0.5;" width="178" x="149" y="50"></rect><text fill="#000000" font-family="sans-serif" font-size="14" lengthAdjust="spacing" textLength="164" x="156" y="69.9951">Advertisement Interface</text><rect fill="#E2E2F0" height="30.2969" rx="2.5" ry="2.5" style="stroke:#181818;stroke-width:0.5;" width="178" x="149" y="275.0938"></rect><text fill="#000000" font-family="sans-serif" font-size="14" lengthAdjust="spacing" textLength="164" x="156" y="295.0889">Advertisement Interface</text><rect fill="#E2E2F0" height="30.2969" rx="2.5" ry="2.5" style="stroke:#181818;stroke-width:0.5;" width="131" x="401.5" y="50"></rect><text fill="#000000" font-family="sans-serif" font-size="14" lengthAdjust="spacing" textLength="117" x="408.5" y="69.9951">Delete Controller</text><rect fill="#E2E2F0" height="30.2969" rx="2.5" ry="2.5" style="stroke:#181818;stroke-width:0.5;" width="131" x="401.5" y="275.0938"></rect><text fill="#000000" font-family="sans-serif" font-size="14" lengthAdjust="spacing" textLength="117" x="408.5" y="295.0889">Delete Controller</text><text fill="#000000" font-family="sans-serif" font-size="14" lengthAdjust="spacing" textLength="66" x="611" y="77.9951">Database</text><path d="M629,29 C629,19 647,19 647,19 C647,19 665,19 665,29 L665,55 C665,65 647,65 647,65 C647,65 629,65 629,55 L629,29 " fill="#E2E2F0" style="stroke:#181818;stroke-width:1.5;"></path><path d="M629,29 C629,39 647,39 647,39 C647,39 665,39 665,29 " fill="none" style="stroke:#181818;stroke-width:1.5;"></path><text fill="#000000" font-family="sans-serif" font-size="14" lengthAdjust="spacing" textLength="66" x="611" y="288.0889">Database</text><path d="M629,301.3906 C629,291.3906 647,291.3906 647,291.3906 C647,291.3906 665,291.3906 665,301.3906 L665,327.3906 C665,337.3906 647,337.3906 647,337.3906 C647,337.3906 629,337.3906 629,327.3906 L629,301.3906 " fill="#E2E2F0" style="stroke:#181818;stroke-width:1.5;"></path><path d="M629,301.3906 C629,311.3906 647,311.3906 647,311.3906 C647,311.3906 665,311.3906 665,301.3906 " fill="none" style="stroke:#181818;stroke-width:1.5;"></path><rect fill="#FFFFFF" height="145.6641" style="stroke:#181818;stroke-width:1.0;" width="10" x="233" y="112.4297"></rect><rect fill="#FFFFFF" height="58.2656" style="stroke:#181818;stroke-width:1.0;" width="10" x="462" y="141.5625"></rect><polygon fill="#181818" points="221,108.4297,231,112.4297,221,116.4297,225,112.4297" style="stroke:#181818;stroke-width:1.0;"></polygon><line style="stroke:#181818;stroke-width:1.0;" x1="24" x2="227" y1="112.4297" y2="112.4297"></line><text fill="#000000" font-family="sans-serif" font-size="13" lengthAdjust="spacing" textLength="117" x="31" y="107.3638">selectDelete(adId)</text><polygon fill="#181818" points="450,137.5625,460,141.5625,450,145.5625,454,141.5625" style="stroke:#181818;stroke-width:1.0;"></polygon><line style="stroke:#181818;stroke-width:1.0;" x1="243" x2="456" y1="141.5625" y2="141.5625"></line><text fill="#000000" font-family="sans-serif" font-size="13" lengthAdjust="spacing" textLength="122" x="250" y="136.4966">initiateDelete(adId)</text><polygon fill="#181818" points="635,166.6953,645,170.6953,635,174.6953,639,170.6953" style="stroke:#181818;stroke-width:1.0;"></polygon><line style="stroke:#181818;stroke-width:1.0;" x1="472" x2="641" y1="170.6953" y2="170.6953"></line><text fill="#000000" font-family="sans-serif" font-size="13" lengthAdjust="spacing" textLength="94" x="479" y="165.6294">deleteAd(adId)</text><polygon fill="#181818" points="478,195.8281,468,199.8281,478,203.8281,474,199.8281" style="stroke:#181818;stroke-width:1.0;"></polygon><line style="stroke:#181818;stroke-width:1.0;stroke-dasharray:2.0,2.0;" x1="472" x2="646" y1="199.8281" y2="199.8281"></line><text fill="#000000" font-family="sans-serif" font-size="13" lengthAdjust="spacing" textLength="151" x="484" y="194.7622">deletionResult(success)</text><polygon fill="#181818" points="254,224.9609,244,228.9609,254,232.9609,250,228.9609" style="stroke:#181818;stroke-width:1.0;"></polygon><line style="stroke:#181818;stroke-width:1.0;stroke-dasharray:2.0,2.0;" x1="248" x2="466" y1="228.9609" y2="228.9609"></line><text fill="#000000" font-family="sans-serif" font-size="13" lengthAdjust="spacing" textLength="200" x="260" y="223.895">displayDeletionStatus(success)</text><polygon fill="#181818" points="35,254.0938,25,258.0938,35,262.0938,31,258.0938" style="stroke:#181818;stroke-width:1.0;"></polygon><line style="stroke:#181818;stroke-width:1.0;stroke-dasharray:2.0,2.0;" x1="29" x2="237" y1="258.0938" y2="258.0938"></line><text fill="#000000" font-family="sans-serif" font-size="13" lengthAdjust="spacing" textLength="185" x="41" y="253.0278">showDeletionResult(success)</text><!--SRC=[XP0n3W8X44LxJa6sqc8lO66YqjXgZFK8OoH1s32pQxoz0svSDIPs37d_VGQmdB8-46RLGMPlVGUHTRDo0yf8U4KPjv4ndy5Yeu7q4K-ViC60Z7gJ8kSK0kQAJQDom702Ga77KoNCMgbIhTjbaUg59Z5PVlfcuBPkhi2o7q3qfRPG0azgoVZesGlmE_Ns2lKM4ubPIzZLqCgDCRbhl_qLyIdkaFh0C-gjHQAvSlYtvBMNyzG5k9jHjMVWdYPLNKlW-Xdo2vTqC_zR9VK0]--></g></svg>