<!--?xml version="1.0" encoding="us-ascii" standalone="no"?--><svg xmlns="http://www.w3.org/2000/svg" xmlns:xlink="http://www.w3.org/1999/xlink" contentstyletype="text/css" height="356px" preserveAspectRatio="none" style="width:886px;height:356px;background:#FFFFFF;" version="1.1" viewBox="0 0 886 356" width="886px" zoomAndPan="magnify"><defs></defs><g><rect fill="#FFFFFF" height="145.6641" style="stroke:#181818;stroke-width:1.0;" width="10" x="292" y="112.4297"></rect><rect fill="#FFFFFF" height="58.2656" style="stroke:#181818;stroke-width:1.0;" width="10" x="545" y="141.5625"></rect><line style="stroke:#181818;stroke-width:0.5;stroke-dasharray:5.0,5.0;" x1="24" x2="24" y1="81.2969" y2="276.0938"></line><line style="stroke:#181818;stroke-width:0.5;stroke-dasharray:5.0,5.0;" x1="296.5" x2="296.5" y1="81.2969" y2="276.0938"></line><line style="stroke:#181818;stroke-width:0.5;stroke-dasharray:5.0,5.0;" x1="549.5" x2="549.5" y1="81.2969" y2="276.0938"></line><line style="stroke:#181818;stroke-width:0.5;stroke-dasharray:5.0,5.0;" x1="831" x2="831" y1="81.2969" y2="276.0938"></line><text fill="#000000" font-family="sans-serif" font-size="14" lengthAdjust="spacing" textLength="32" x="5" y="77.9951">User</text><ellipse cx="24" cy="13.5" fill="#E2E2F0" rx="8" ry="8" style="stroke:#181818;stroke-width:0.5;"></ellipse><path d="M24,21.5 L24,48.5 M11,29.5 L37,29.5 M24,48.5 L11,63.5 M24,48.5 L37,63.5 " fill="none" style="stroke:#181818;stroke-width:0.5;"></path><text fill="#000000" font-family="sans-serif" font-size="14" lengthAdjust="spacing" textLength="32" x="5" y="288.0889">User</text><ellipse cx="24" cy="299.8906" fill="#E2E2F0" rx="8" ry="8" style="stroke:#181818;stroke-width:0.5;"></ellipse><path d="M24,307.8906 L24,334.8906 M11,315.8906 L37,315.8906 M24,334.8906 L11,349.8906 M24,334.8906 L37,349.8906 " fill="none" style="stroke:#181818;stroke-width:0.5;"></path><rect fill="#E2E2F0" height="30.2969" rx="2.5" ry="2.5" style="stroke:#181818;stroke-width:0.5;" width="115" x="239.5" y="50"></rect><text fill="#000000" font-family="sans-serif" font-size="14" lengthAdjust="spacing" textLength="101" x="246.5" y="69.9951">Login Interface</text><rect fill="#E2E2F0" height="30.2969" rx="2.5" ry="2.5" style="stroke:#181818;stroke-width:0.5;" width="115" x="239.5" y="275.0938"></rect><text fill="#000000" font-family="sans-serif" font-size="14" lengthAdjust="spacing" textLength="101" x="246.5" y="295.0889">Login Interface</text><rect fill="#E2E2F0" height="30.2969" rx="2.5" ry="2.5" style="stroke:#181818;stroke-width:0.5;" width="185" x="457.5" y="50"></rect><text fill="#000000" font-family="sans-serif" font-size="14" lengthAdjust="spacing" textLength="171" x="464.5" y="69.9951">Authentication Controller</text><rect fill="#E2E2F0" height="30.2969" rx="2.5" ry="2.5" style="stroke:#181818;stroke-width:0.5;" width="185" x="457.5" y="275.0938"></rect><text fill="#000000" font-family="sans-serif" font-size="14" lengthAdjust="spacing" textLength="171" x="464.5" y="295.0889">Authentication Controller</text><text fill="#000000" font-family="sans-serif" font-size="14" lengthAdjust="spacing" textLength="102" x="777" y="77.9951">User Database</text><path d="M813,29 C813,19 831,19 831,19 C831,19 849,19 849,29 L849,55 C849,65 831,65 831,65 C831,65 813,65 813,55 L813,29 " fill="#E2E2F0" style="stroke:#181818;stroke-width:1.5;"></path><path d="M813,29 C813,39 831,39 831,39 C831,39 849,39 849,29 " fill="none" style="stroke:#181818;stroke-width:1.5;"></path><text fill="#000000" font-family="sans-serif" font-size="14" lengthAdjust="spacing" textLength="102" x="777" y="288.0889">User Database</text><path d="M813,301.3906 C813,291.3906 831,291.3906 831,291.3906 C831,291.3906 849,291.3906 849,301.3906 L849,327.3906 C849,337.3906 831,337.3906 831,337.3906 C831,337.3906 813,337.3906 813,327.3906 L813,301.3906 " fill="#E2E2F0" style="stroke:#181818;stroke-width:1.5;"></path><path d="M813,301.3906 C813,311.3906 831,311.3906 831,311.3906 C831,311.3906 849,311.3906 849,301.3906 " fill="none" style="stroke:#181818;stroke-width:1.5;"></path><rect fill="#FFFFFF" height="145.6641" style="stroke:#181818;stroke-width:1.0;" width="10" x="292" y="112.4297"></rect><rect fill="#FFFFFF" height="58.2656" style="stroke:#181818;stroke-width:1.0;" width="10" x="545" y="141.5625"></rect><polygon fill="#181818" points="280,108.4297,290,112.4297,280,116.4297,284,112.4297" style="stroke:#181818;stroke-width:1.0;"></polygon><line style="stroke:#181818;stroke-width:1.0;" x1="24" x2="286" y1="112.4297" y2="112.4297"></line><text fill="#000000" font-family="sans-serif" font-size="13" lengthAdjust="spacing" textLength="249" x="31" y="107.3638">enterCredentials(username, password)</text><polygon fill="#181818" points="533,137.5625,543,141.5625,533,145.5625,537,141.5625" style="stroke:#181818;stroke-width:1.0;"></polygon><line style="stroke:#181818;stroke-width:1.0;" x1="302" x2="539" y1="141.5625" y2="141.5625"></line><text fill="#000000" font-family="sans-serif" font-size="13" lengthAdjust="spacing" textLength="224" x="309" y="136.4966">authenticate(username, password)</text><polygon fill="#181818" points="819,166.6953,829,170.6953,819,174.6953,823,170.6953" style="stroke:#181818;stroke-width:1.0;"></polygon><line style="stroke:#181818;stroke-width:1.0;" x1="555" x2="825" y1="170.6953" y2="170.6953"></line><text fill="#000000" font-family="sans-serif" font-size="13" lengthAdjust="spacing" textLength="252" x="562" y="165.6294">checkCredentials(username, password)</text><polygon fill="#181818" points="561,195.8281,551,199.8281,561,203.8281,557,199.8281" style="stroke:#181818;stroke-width:1.0;"></polygon><line style="stroke:#181818;stroke-width:1.0;stroke-dasharray:2.0,2.0;" x1="555" x2="830" y1="199.8281" y2="199.8281"></line><text fill="#000000" font-family="sans-serif" font-size="13" lengthAdjust="spacing" textLength="101" x="567" y="194.7622">credentialsValid</text><polygon fill="#181818" points="313,224.9609,303,228.9609,313,232.9609,309,228.9609" style="stroke:#181818;stroke-width:1.0;"></polygon><line style="stroke:#181818;stroke-width:1.0;stroke-dasharray:2.0,2.0;" x1="307" x2="549" y1="228.9609" y2="228.9609"></line><text fill="#000000" font-family="sans-serif" font-size="13" lengthAdjust="spacing" textLength="115" x="319" y="223.895">loginResult(result)</text><polygon fill="#181818" points="35,254.0938,25,258.0938,35,262.0938,31,258.0938" style="stroke:#181818;stroke-width:1.0;"></polygon><line style="stroke:#181818;stroke-width:1.0;stroke-dasharray:2.0,2.0;" x1="29" x2="296" y1="258.0938" y2="258.0938"></line><text fill="#000000" font-family="sans-serif" font-size="13" lengthAdjust="spacing" textLength="129" x="41" y="253.0278">displayResult(result)</text><!--SRC=[XP11QWCn34NtFeMOLGBD1R8899dDG5U1wLwnrSRKjGTPqz3RLp89qvRIhepy_zENX5uAmrY9tOGiqSS9iq3tM5vYXY4ByJDwwW0hZCDtptwM2sMjKMB9S2nPkAH4tDocke22Pwm4dKL0VokReJyurtutEsqDMo1BEp85QugfhcPLCxxH0qnOwxLmM3lq4jzHoAPHIbaBKXgNQUXliatc6gPuVr3ONyY__XUjpisIvnVt4wOONA1V4-xR9RleYUgSPCNjMRS5JBShR274EYNy-E7vqdOSFW40]--></g></svg>