<!--?xml version="1.0" encoding="us-ascii" standalone="no"?--><svg xmlns="http://www.w3.org/2000/svg" xmlns:xlink="http://www.w3.org/1999/xlink" contentstyletype="text/css" height="356px" preserveAspectRatio="none" style="width:555px;height:356px;background:#FFFFFF;" version="1.1" viewBox="0 0 555 356" width="555px" zoomAndPan="magnify"><defs></defs><g><rect fill="#FFFFFF" height="145.6641" style="stroke:#181818;stroke-width:1.0;" width="10" x="222" y="112.4297"></rect><rect fill="#FFFFFF" height="58.2656" style="stroke:#181818;stroke-width:1.0;" width="10" x="374" y="141.5625"></rect><line style="stroke:#181818;stroke-width:0.5;stroke-dasharray:5.0,5.0;" x1="24" x2="24" y1="81.2969" y2="276.0938"></line><line style="stroke:#181818;stroke-width:0.5;stroke-dasharray:5.0,5.0;" x1="227" x2="227" y1="81.2969" y2="276.0938"></line><line style="stroke:#181818;stroke-width:0.5;stroke-dasharray:5.0,5.0;" x1="378.5" x2="378.5" y1="81.2969" y2="276.0938"></line><line style="stroke:#181818;stroke-width:0.5;stroke-dasharray:5.0,5.0;" x1="518" x2="518" y1="81.2969" y2="276.0938"></line><text fill="#000000" font-family="sans-serif" font-size="14" lengthAdjust="spacing" textLength="32" x="5" y="77.9951">User</text><ellipse cx="24" cy="13.5" fill="#E2E2F0" rx="8" ry="8" style="stroke:#181818;stroke-width:0.5;"></ellipse><path d="M24,21.5 L24,48.5 M11,29.5 L37,29.5 M24,48.5 L11,63.5 M24,48.5 L37,63.5 " fill="none" style="stroke:#181818;stroke-width:0.5;"></path><text fill="#000000" font-family="sans-serif" font-size="14" lengthAdjust="spacing" textLength="32" x="5" y="288.0889">User</text><ellipse cx="24" cy="299.8906" fill="#E2E2F0" rx="8" ry="8" style="stroke:#181818;stroke-width:0.5;"></ellipse><path d="M24,307.8906 L24,334.8906 M11,315.8906 L37,315.8906 M24,334.8906 L11,349.8906 M24,334.8906 L37,349.8906 " fill="none" style="stroke:#181818;stroke-width:0.5;"></path><rect fill="#E2E2F0" height="30.2969" rx="2.5" ry="2.5" style="stroke:#181818;stroke-width:0.5;" width="126" x="164" y="50"></rect><text fill="#000000" font-family="sans-serif" font-size="14" lengthAdjust="spacing" textLength="112" x="171" y="69.9951">Search Interface</text><rect fill="#E2E2F0" height="30.2969" rx="2.5" ry="2.5" style="stroke:#181818;stroke-width:0.5;" width="126" x="164" y="275.0938"></rect><text fill="#000000" font-family="sans-serif" font-size="14" lengthAdjust="spacing" textLength="112" x="171" y="295.0889">Search Interface</text><rect fill="#E2E2F0" height="30.2969" rx="2.5" ry="2.5" style="stroke:#181818;stroke-width:0.5;" width="133" x="312.5" y="50"></rect><text fill="#000000" font-family="sans-serif" font-size="14" lengthAdjust="spacing" textLength="119" x="319.5" y="69.9951">Search Controller</text><rect fill="#E2E2F0" height="30.2969" rx="2.5" ry="2.5" style="stroke:#181818;stroke-width:0.5;" width="133" x="312.5" y="275.0938"></rect><text fill="#000000" font-family="sans-serif" font-size="14" lengthAdjust="spacing" textLength="119" x="319.5" y="295.0889">Search Controller</text><text fill="#000000" font-family="sans-serif" font-size="14" lengthAdjust="spacing" textLength="66" x="482" y="77.9951">Database</text><path d="M500,29 C500,19 518,19 518,19 C518,19 536,19 536,29 L536,55 C536,65 518,65 518,65 C518,65 500,65 500,55 L500,29 " fill="#E2E2F0" style="stroke:#181818;stroke-width:1.5;"></path><path d="M500,29 C500,39 518,39 518,39 C518,39 536,39 536,29 " fill="none" style="stroke:#181818;stroke-width:1.5;"></path><text fill="#000000" font-family="sans-serif" font-size="14" lengthAdjust="spacing" textLength="66" x="482" y="288.0889">Database</text><path d="M500,301.3906 C500,291.3906 518,291.3906 518,291.3906 C518,291.3906 536,291.3906 536,301.3906 L536,327.3906 C536,337.3906 518,337.3906 518,337.3906 C518,337.3906 500,337.3906 500,327.3906 L500,301.3906 " fill="#E2E2F0" style="stroke:#181818;stroke-width:1.5;"></path><path d="M500,301.3906 C500,311.3906 518,311.3906 518,311.3906 C518,311.3906 536,311.3906 536,301.3906 " fill="none" style="stroke:#181818;stroke-width:1.5;"></path><rect fill="#FFFFFF" height="145.6641" style="stroke:#181818;stroke-width:1.0;" width="10" x="222" y="112.4297"></rect><rect fill="#FFFFFF" height="58.2656" style="stroke:#181818;stroke-width:1.0;" width="10" x="374" y="141.5625"></rect><polygon fill="#181818" points="210,108.4297,220,112.4297,210,116.4297,214,112.4297" style="stroke:#181818;stroke-width:1.0;"></polygon><line style="stroke:#181818;stroke-width:1.0;" x1="24" x2="216" y1="112.4297" y2="112.4297"></line><text fill="#000000" font-family="sans-serif" font-size="13" lengthAdjust="spacing" textLength="179" x="31" y="107.3638">enterSearchCriteria(criteria)</text><polygon fill="#181818" points="362,137.5625,372,141.5625,362,145.5625,366,141.5625" style="stroke:#181818;stroke-width:1.0;"></polygon><line style="stroke:#181818;stroke-width:1.0;" x1="232" x2="368" y1="141.5625" y2="141.5625"></line><text fill="#000000" font-family="sans-serif" font-size="13" lengthAdjust="spacing" textLength="121" x="239" y="136.4966">searchAds(criteria)</text><polygon fill="#181818" points="506,166.6953,516,170.6953,506,174.6953,510,170.6953" style="stroke:#181818;stroke-width:1.0;"></polygon><line style="stroke:#181818;stroke-width:1.0;" x1="384" x2="512" y1="170.6953" y2="170.6953"></line><text fill="#000000" font-family="sans-serif" font-size="13" lengthAdjust="spacing" textLength="110" x="391" y="165.6294">fetchAds(criteria)</text><polygon fill="#181818" points="390,195.8281,380,199.8281,390,203.8281,386,199.8281" style="stroke:#181818;stroke-width:1.0;"></polygon><line style="stroke:#181818;stroke-width:1.0;stroke-dasharray:2.0,2.0;" x1="384" x2="517" y1="199.8281" y2="199.8281"></line><text fill="#000000" font-family="sans-serif" font-size="13" lengthAdjust="spacing" textLength="63" x="396" y="194.7622">returnAds</text><polygon fill="#181818" points="243,224.9609,233,228.9609,243,232.9609,239,228.9609" style="stroke:#181818;stroke-width:1.0;"></polygon><line style="stroke:#181818;stroke-width:1.0;stroke-dasharray:2.0,2.0;" x1="237" x2="378" y1="228.9609" y2="228.9609"></line><text fill="#000000" font-family="sans-serif" font-size="13" lengthAdjust="spacing" textLength="123" x="249" y="223.895">displayResults(ads)</text><polygon fill="#181818" points="35,254.0938,25,258.0938,35,262.0938,31,258.0938" style="stroke:#181818;stroke-width:1.0;"></polygon><line style="stroke:#181818;stroke-width:1.0;stroke-dasharray:2.0,2.0;" x1="29" x2="226" y1="258.0938" y2="258.0938"></line><text fill="#000000" font-family="sans-serif" font-size="13" lengthAdjust="spacing" textLength="88" x="41" y="253.0278">showResults()</text><!--SRC=[XP112i9034NtSuhGLRlm0Yu4jHktYWU8Cn47XhOaKV7sfjDMIn7S9U7z_vEWrvRXBCIkGzReOuUDGd4YP7-3GwF4L_HK00eCmv_WlcsKsvI8C_bjNK352mf1KOzL9kgTStqih3QZBwo1-hYXstEqEcBfnw9ow3K-K6dQOvIPmJVEJ2IFjq5-IMUBkPdAFEgTQQ-aIwdDLyi89hrpOvmBzDTwVc28qYLy7KdkIQN48DNd3EFoG-o2M_kSa6eUCQ1l]--></g></svg>