<!--?xml version="1.0" encoding="us-ascii" standalone="no"?--><svg xmlns="http://www.w3.org/2000/svg" xmlns:xlink="http://www.w3.org/1999/xlink" contentstyletype="text/css" height="538px" preserveAspectRatio="none" style="width:405px;height:538px;background:#FFFFFF;" version="1.1" viewBox="0 0 405 538" width="405px" zoomAndPan="magnify"><defs></defs><g><!--cluster LOKALizator--><g id="cluster_LOKALizator"><rect fill="none" height="525" rx="2.5" ry="2.5" style="stroke:#181818;stroke-width:1.0;" width="231.95" x="168" y="7"></rect><text fill="#000000" font-family="sans-serif" font-size="14" font-weight="bold" lengthAdjust="spacing" textLength="97" x="235.475" y="21.9951">LOKALizator</text></g><g id="elem_Login"><ellipse cx="283.9738" cy="57.0012" fill="#F1F1F1" rx="40.6638" ry="14.5812" style="stroke:#181818;stroke-width:0.5;"></ellipse><text fill="#000000" font-family="sans-serif" font-size="14" lengthAdjust="spacing" textLength="41" x="260.8222" y="60.6632">Log In</text></g><g id="elem_Register"><ellipse cx="283.9672" cy="121.0015" fill="#F1F1F1" rx="53.3472" ry="14.7215" style="stroke:#181818;stroke-width:0.5;"></ellipse><text fill="#000000" font-family="sans-serif" font-size="14" lengthAdjust="spacing" textLength="58" x="251.9672" y="124.749">Register</text></g><g id="elem_BrowseAds"><ellipse cx="283.9738" cy="193.0048" fill="#F1F1F1" rx="99.9738" ry="22.3948" style="stroke:#181818;stroke-width:0.5;"></ellipse><text fill="#000000" font-family="sans-serif" font-size="14" lengthAdjust="spacing" textLength="164" x="201.9738" y="195.8514">Browse Advertisements</text></g><g id="elem_PostAd"><ellipse cx="283.9668" cy="269.9974" fill="#F1F1F1" rx="87.0368" ry="19.8074" style="stroke:#181818;stroke-width:0.5;"></ellipse><text fill="#000000" font-family="sans-serif" font-size="14" lengthAdjust="spacing" textLength="135" x="216.4668" y="272.844">Post Advertisement</text></g><g id="elem_EditAd"><ellipse cx="283.9692" cy="344.0018" fill="#F1F1F1" rx="84.8592" ry="19.3718" style="stroke:#181818;stroke-width:0.5;"></ellipse><text fill="#000000" font-family="sans-serif" font-size="14" lengthAdjust="spacing" textLength="130" x="218.9692" y="346.8485">Edit Advertisement</text></g><g id="elem_DeleteAd"><ellipse cx="283.9693" cy="420.0039" fill="#F1F1F1" rx="93.6693" ry="21.1339" style="stroke:#181818;stroke-width:0.5;"></ellipse><text fill="#000000" font-family="sans-serif" font-size="14" lengthAdjust="spacing" textLength="150" x="208.9693" y="422.8505">Delete Advertisement</text></g><g id="elem_AdminSystem"><ellipse cx="283.9728" cy="496.0046" fill="#F1F1F1" rx="89.6728" ry="20.3346" style="stroke:#181818;stroke-width:0.5;"></ellipse><text fill="#000000" font-family="sans-serif" font-size="14" lengthAdjust="spacing" textLength="141" x="213.4728" y="498.8512">Administrate System</text></g><!--entity AU--><g id="elem_AU"><ellipse cx="65" cy="91.35" fill="#F1F1F1" rx="8" ry="8" style="stroke:#181818;stroke-width:0.5;"></ellipse><path d="M65,99.35 L65,126.35 M52,107.35 L78,107.35 M65,126.35 L52,141.35 M65,126.35 L78,141.35 " fill="none" style="stroke:#181818;stroke-width:0.5;"></path><text fill="#000000" font-family="sans-serif" font-size="14" lengthAdjust="spacing" textLength="118" x="6" y="155.8451">Anonymous User</text></g><!--entity RU--><g id="elem_RU"><ellipse cx="65" cy="259.35" fill="#F1F1F1" rx="8" ry="8" style="stroke:#181818;stroke-width:0.5;"></ellipse><path d="M65,267.35 L65,294.35 M52,275.35 L78,275.35 M65,294.35 L52,309.35 M65,294.35 L78,309.35 " fill="none" style="stroke:#181818;stroke-width:0.5;"></path><text fill="#000000" font-family="sans-serif" font-size="14" lengthAdjust="spacing" textLength="112" x="9" y="323.8451">Registered User</text></g><!--entity Admin--><g id="elem_Admin"><ellipse cx="65" cy="390.35" fill="#F1F1F1" rx="8" ry="8" style="stroke:#181818;stroke-width:0.5;"></ellipse><path d="M65,398.35 L65,425.35 M52,406.35 L78,406.35 M65,425.35 L52,440.35 M65,425.35 L78,440.35 " fill="none" style="stroke:#181818;stroke-width:0.5;"></path><text fill="#000000" font-family="sans-serif" font-size="14" lengthAdjust="spacing" textLength="91" x="19.5" y="454.8451">Administrator</text></g><!--link AU to BrowseAds--><g id="link_AU_BrowseAds"><path d="M124.38,141.01 C136.16,145.01 148.47,149.16 160,153 C181.3,160.09 199.0234,165.8867 219.6534,172.5867 " fill="none" id="AU-to-BrowseAds" style="stroke:#181818;stroke-width:1.0;"></path><polygon fill="#181818" points="225.36,174.44,218.0357,167.8556,220.6045,172.8956,215.5646,175.4644,225.36,174.44" style="stroke:#181818;stroke-width:1.0;"></polygon></g><!--link AU to Login--><g id="link_AU_Login"><path d="M124.45,100.36 C136.18,96.43 148.44,92.47 160,89 C190.01,80 218.7338,72.5737 243.5638,66.4637 " fill="none" id="AU-to-Login" style="stroke:#181818;stroke-width:1.0;"></path><polygon fill="#181818" points="249.39,65.03,239.6949,63.2964,244.5348,66.2247,241.6065,71.0646,249.39,65.03" style="stroke:#181818;stroke-width:1.0;"></polygon></g><!--link AU to Register--><g id="link_AU_Register"><path d="M124.43,121 C157.44,121 192.37,121 224.38,121 " fill="none" id="AU-to-Register" style="stroke:#181818;stroke-width:1.0;"></path><polygon fill="#181818" points="230.38,121,221.38,117,225.38,121,221.38,125,230.38,121" style="stroke:#181818;stroke-width:1.0;"></polygon></g><!--link RU to BrowseAds--><g id="link_RU_BrowseAds"><path d="M121.32,253.28 C133.76,246.03 147.11,238.85 160,233 C179.01,224.37 194.7224,218.5592 214.3024,212.3292 " fill="none" id="RU-to-BrowseAds" style="stroke:#181818;stroke-width:1.0;"></path><polygon fill="#181818" points="220.02,210.51,210.2309,209.4271,215.2554,212.026,212.6565,217.0505,220.02,210.51" style="stroke:#181818;stroke-width:1.0;"></polygon></g><!--link RU to PostAd--><g id="link_RU_PostAd"><path d="M121.31,284.16 C145.8,282.01 169.103,279.9748 195.983,277.6148 " fill="none" id="RU-to-PostAd" style="stroke:#181818;stroke-width:1.0;"></path><polygon fill="#181818" points="201.96,277.09,192.6446,273.8925,196.9792,277.5273,193.3443,281.8618,201.96,277.09" style="stroke:#181818;stroke-width:1.0;"></polygon></g><!--link RU to EditAd--><g id="link_RU_EditAd"><path d="M121.31,303.02 C153.33,311.14 187.7338,319.8562 220.0538,328.0462 " fill="none" id="RU-to-EditAd" style="stroke:#181818;stroke-width:1.0;"></path><polygon fill="#181818" points="225.87,329.52,218.1283,323.4318,221.0232,328.2918,216.1632,331.1867,225.87,329.52" style="stroke:#181818;stroke-width:1.0;"></polygon></g><!--link RU to DeleteAd--><g id="link_RU_DeleteAd"><path d="M97.51,327.36 C114.39,345.79 136.51,366.89 160,381 C177.18,391.32 191.6479,397.417 210.6579,403.297 " fill="none" id="RU-to-DeleteAd" style="stroke:#181818;stroke-width:1.0;"></path><polygon fill="#181818" points="216.39,405.07,208.9739,398.5891,211.6133,403.5925,206.6099,406.2319,216.39,405.07" style="stroke:#181818;stroke-width:1.0;"></polygon></g><!--link Admin to AdminSystem--><g id="link_Admin_AdminSystem"><path d="M110.59,439.58 C126.09,446.1 143.69,453.18 160,459 C181.31,466.61 199.3042,472.3055 220.1942,478.4555 " fill="none" id="Admin-to-AdminSystem" style="stroke:#181818;stroke-width:1.0;"></path><polygon fill="#181818" points="225.95,480.15,218.446,473.7711,221.1535,478.7379,216.1867,481.4454,225.95,480.15" style="stroke:#181818;stroke-width:1.0;"></polygon></g><!--link Admin to DeleteAd--><g id="link_Admin_DeleteAd"><path d="M110.96,420 C133.92,420 156.75,420 184.2,420 " fill="none" id="Admin-to-DeleteAd" style="stroke:#181818;stroke-width:1.0;"></path><polygon fill="#181818" points="190.2,420,181.2,416,185.2,420,181.2,424,190.2,420" style="stroke:#181818;stroke-width:1.0;"></polygon></g><!--link Admin to EditAd--><g id="link_Admin_EditAd"><path d="M110.59,400.42 C126.09,393.9 143.69,386.82 160,381 C182.26,373.06 201.4118,367.0361 222.9618,360.7261 " fill="none" id="Admin-to-EditAd" style="stroke:#181818;stroke-width:1.0;"></path><polygon fill="#181818" points="228.72,359.04,218.9586,357.7303,223.9215,360.445,221.2067,365.4079,228.72,359.04" style="stroke:#181818;stroke-width:1.0;"></polygon></g><!--SRC=[RP11RiCW44Ntd6BaLRF85IeHjOkgbXevyW6GcL8K6oAODdAhthrWZB4hxypx3sQ-Utmd80jEgmy2gHrsfArX_ghDJJWnm4rqLw7mGcEF46DXL8zCT6GTLDnOCmxsqqFhqLKWFF0sXmqgxGaTof8sIyhbe4t8dGZ7T3CInfOXKDLlhxpMtyduOG0FjLNmOWvHZz_Q72BDan9VJZ4wENlt6Dx-GaVQuu26VF9InAMVnBFrjDMI5JcNa_8izQuI-QmyOO-4Ur9APcrL7k4oXcs7P4t135WmUGl7u-E_NJDSVa06fNc0pTxL34khJ4g9JCh6SKHSBF7DZfjatN65yzE_Vm00]--></g></svg>