<!--?xml version="1.0" encoding="us-ascii" standalone="no"?--><svg xmlns="http://www.w3.org/2000/svg" xmlns:xlink="http://www.w3.org/1999/xlink" contentstyletype="text/css" height="330px" preserveAspectRatio="none" style="width:378px;height:330px;background:#FFFFFF;" version="1.1" viewBox="0 0 378 330" width="378px" zoomAndPan="magnify"><defs></defs><g><!--cluster Dodawanie og?osze?--><g id="cluster_Dodawanie ogłoszeń"><rect fill="none" height="315" rx="2.5" ry="2.5" style="stroke:#181818;stroke-width:1.0;" width="195.73" x="177" y="7"></rect><text fill="#000000" font-family="sans-serif" font-size="14" font-weight="bold" lengthAdjust="spacing" textLength="164" x="192.865" y="21.9951">Dodawanie ogłoszeń</text></g><g id="elem_Dodaj ogłoszenie"><ellipse cx="274.8707" cy="287.0021" fill="#F1F1F1" rx="80.6107" ry="18.5221" style="stroke:#181818;stroke-width:0.5;"></ellipse><text fill="#000000" font-family="sans-serif" font-size="14" lengthAdjust="spacing" textLength="120" x="213.4326" y="290.3148">Dodaj ogłoszenie</text></g><g id="elem_Wybierz kategorię"><ellipse cx="274.8658" cy="61.0032" fill="#F1F1F1" rx="81.8658" ry="18.7732" style="stroke:#181818;stroke-width:0.5;"></ellipse><text fill="#000000" font-family="sans-serif" font-size="14" lengthAdjust="spacing" textLength="123" x="212.3805" y="64.1763">Wybierz kategorię</text></g><g id="elem_Dodaj zdjęcia"><ellipse cx="274.8652" cy="130.999" fill="#F1F1F1" rx="69.6952" ry="16.339" style="stroke:#181818;stroke-width:0.5;"></ellipse><text fill="#000000" font-family="sans-serif" font-size="14" lengthAdjust="spacing" textLength="92" x="225.8652" y="134.7466">Dodaj zdjęcia</text></g><g id="elem_Wprowadź opis"><ellipse cx="274.8666" cy="200.0013" fill="#F1F1F1" rx="74.6066" ry="17.3213" style="stroke:#181818;stroke-width:0.5;"></ellipse><text fill="#000000" font-family="sans-serif" font-size="14" lengthAdjust="spacing" textLength="105" x="219.3666" y="203.7489">Wprowadź opis</text></g><!--entity user--><g id="elem_user"><ellipse cx="45" cy="257.35" fill="#F1F1F1" rx="8" ry="8" style="stroke:#181818;stroke-width:0.5;"></ellipse><path d="M45,265.35 L45,292.35 M32,273.35 L58,273.35 M45,292.35 L32,307.35 M45,292.35 L58,307.35 " fill="none" style="stroke:#181818;stroke-width:0.5;"></path><text fill="#000000" font-family="sans-serif" font-size="14" lengthAdjust="spacing" textLength="78" x="6" y="321.8451">Użytkownik</text></g><!--link user to Dodaj og?oszenie--><g id="link_user_Dodaj ogłoszenie"><path d="M84.4,287 C114.33,287 156.92,287 194.15,287 " fill="none" id="user-Dodaj ogłoszenie" style="stroke:#181818;stroke-width:1.0;"></path></g><!--link Dodaj og?oszenie to Wybierz kategori?--><g id="link_Dodaj ogłoszenie_Wybierz kategorię"><path d="M198.38,280.91 C174.88,275.01 151.41,264.16 136.89,244.5 C123.48,226.33 85.23,188.35 169,97 C179.56,85.48 188.3067,79.6879 203.0667,74.3579 " fill="none" id="Dodaj ogłoszenie-to-Wybierz kategorię" style="stroke:#181818;stroke-width:1.0;stroke-dasharray:7.0,7.0;"></path><polygon fill="#181818" points="208.71,72.32,198.8864,71.6146,204.0072,74.0182,201.6036,79.139,208.71,72.32" style="stroke:#181818;stroke-width:1.0;"></polygon><text fill="#000000" font-family="sans-serif" font-size="13" lengthAdjust="spacing" textLength="45" x="115" y="240.5669">include</text></g><!--link Dodaj og?oszenie to Dodaj zdj?cia--><g id="link_Dodaj ogłoszenie_Dodaj zdjęcia"><path d="M230.58,271.11 C178.48,249.96 103.09,210.11 136.89,166.5 C152.96,145.78 173.4498,137.1051 198.8898,132.9151 " fill="none" id="Dodaj ogłoszenie-to-Dodaj zdjęcia" style="stroke:#181818;stroke-width:1.0;stroke-dasharray:7.0,7.0;"></path><polygon fill="#181818" points="204.81,131.94,195.2796,129.4558,199.8765,132.7526,196.5797,137.3494,204.81,131.94" style="stroke:#181818;stroke-width:1.0;"></polygon><text fill="#000000" font-family="sans-serif" font-size="13" lengthAdjust="spacing" textLength="45" x="115" y="179.5669">include</text></g><!--link Dodaj og?oszenie to Wprowad? opis--><g id="link_Dodaj ogłoszenie_Wprowadź opis"><path d="M274.87,268.12 C274.87,253.13 274.87,238.32 274.87,223.65 " fill="none" id="Dodaj ogłoszenie-to-Wprowadź opis" style="stroke:#181818;stroke-width:1.0;stroke-dasharray:7.0,7.0;"></path><polygon fill="#181818" points="274.87,217.65,270.87,226.65,274.87,222.65,278.87,226.65,274.87,217.65" style="stroke:#181818;stroke-width:1.0;"></polygon><text fill="#000000" font-family="sans-serif" font-size="13" lengthAdjust="spacing" textLength="45" x="240.87" y="247.4669">include</text></g><!--SRC=[ZOix3e9048PxJl672WeyW8MLLp3KApkk0sI7B4i861lZ9RYAiOHx2PeO2sDilqT91mylS6oE7feTPPx51Yhpuh2RxfqlfBLSGDLeQdB1KYXhIaAu5QrQPPaWPhf8tTDq3N4Ay2oH98YM97_hEOrd-uLYjK6KTdicrwDGdemu7eSOQx3DoaRJZ- -5UvsFGyRgloUjdBHAJpT8nVNdStu0]--></g></svg>